<?xml version="1.0" encoding="UTF-8"?>
<svg id="Capa_2" data-name="Capa 2" xmlns="http://www.w3.org/2000/svg" viewBox="0 0 54 54">
  <defs>
    <style>
      .cls-1 {
        fill: #fff;
      }

      .cls-2 {
        fill: #268c5c;
      }
    </style>
  </defs>
  <g id="Capa_1-2" data-name="Capa 1">
    <g>
      <circle class="cls-2" cx="27" cy="27" r="27"/>
      <g>
        <path class="cls-1" d="m24.05,26.22c1.02.38,1.87.98,2.46,1.91.52.81.76,1.71.82,2.66.13,2.19-.59,4.02-2.26,5.46-.86.75-1.88,1.14-3,1.33-.86.15-1.73.23-2.61.23-3.2,0-6.39,0-9.59,0-.2,0-.26-.05-.25-.25,0-1.86,0-3.73,0-5.59,0-1.82,0-3.63,0-5.45s0-3.63,0-5.45c0-1.58,0-3.16,0-4.74,0-.13.04-.15.16-.15.8,0,1.6,0,2.4,0,2.61,0,5.22-.01,7.83,0,1.26,0,2.51.18,3.67.72,1.47.69,2.41,1.81,2.79,3.39.25,1.04.24,2.08-.02,3.11-.33,1.26-1.14,2.12-2.27,2.71-.04.02-.08.04-.12.07,0,0,0,.01-.02.04m-9.44,4.95h0v.85c0,.61.01,1.22,0,1.84,0,.18.04.21.21.21,1.24,0,2.47,0,3.71,0,.66,0,1.33,0,1.99-.11,1.02-.19,1.78-.71,2.1-1.73.19-.59.23-1.2.13-1.81-.15-.87-.63-1.46-1.45-1.79-.54-.22-1.11-.3-1.68-.3-1.62-.02-3.24,0-4.87-.01-.12,0-.14.04-.14.15,0,.91,0,1.82,0,2.72m2.62-6.46c.44,0,.87,0,1.31,0,.65,0,1.31.03,1.94-.14.74-.19,1.41-.49,1.69-1.27.19-.52.21-1.05.11-1.59-.16-.85-.66-1.34-1.5-1.54-.59-.14-1.18-.21-1.78-.22-1.42-.02-2.84,0-4.26,0-.11,0-.15.02-.15.14,0,1.48,0,2.96,0,4.44,0,.15.04.19.19.19.81,0,1.63,0,2.44,0"/>
        <path class="cls-1" d="m38.72,30.53c-1.8,0-3.61,0-5.41,0-.18,0-.23.05-.21.23.08.85.27,1.66.82,2.34.54.67,1.27,1.05,2.1,1.2.82.15,1.65.13,2.44-.19.66-.27,1.13-.73,1.47-1.35.07-.12.14-.15.27-.15,1.26,0,2.52,0,3.78,0,.16,0,.18.04.15.19-.17.93-.67,1.69-1.27,2.39-1.22,1.42-2.79,2.17-4.63,2.4-1.47.19-2.93.11-4.34-.4-1.32-.48-2.5-1.19-3.39-2.3-.65-.81-1.02-1.76-1.24-2.77-.3-1.43-.33-2.87-.13-4.31.19-1.45.65-2.8,1.6-3.94,1.11-1.35,2.55-2.16,4.27-2.47,1.32-.24,2.63-.2,3.92.1,2.07.48,3.6,1.68,4.56,3.58.55,1.08.8,2.23.86,3.43.03.61.02,1.22.04,1.84,0,.16-.04.2-.2.2-1.82,0-3.63,0-5.45,0m-2.06-2.67h0c1.03,0,2.07,0,3.1,0,.39,0,.41,0,.36-.39-.15-1.1-.67-1.95-1.67-2.49-.68-.36-1.4-.45-2.15-.39-.71.05-1.37.26-1.91.76-.7.65-1.02,1.48-1.18,2.39-.03.18.09.13.17.13,1.09,0,2.19,0,3.28,0"/>
        <path class="cls-1" d="m36.67,17.09c1.4,0,2.8,0,4.2,0,.13,0,.15.04.14.14,0,.62,0,1.24,0,1.86,0,.14-.05.16-.17.16-1.92,0-3.85,0-5.77,0-.86,0-1.72,0-2.58,0-.14,0-.2-.03-.19-.19,0-.59,0-1.18,0-1.78,0-.16.04-.2.2-.2,1.39,0,2.78,0,4.18,0"/>
      </g>
    </g>
  </g>
</svg>