<?xml version="1.0" encoding="UTF-8"?>
<svg id="Capa_2" data-name="Capa 2" xmlns="http://www.w3.org/2000/svg" viewBox="0 0 45 45">
  <defs>
    <style>
      .cls-1 {
        fill: #fff;
      }
    </style>
  </defs>
  <g id="Capa_1-2" data-name="Capa 1">
    <g>
      <path class="cls-1" d="m32.04,20.82c-.56-.3-1.17-.38-1.79-.33-.59.04-1.14.22-1.59.63-.58.54-.85,1.23-.99,1.99-.03.15.07.11.14.11.91,0,1.82,0,2.74,0h0c.86,0,1.72,0,2.59,0,.33,0,.34,0,.3-.32-.12-.92-.56-1.63-1.39-2.07Z"/>
      <path class="cls-1" d="m12.33,20.59c.68,0,1.35,0,2.03,0,.36,0,.73,0,1.09,0,.54,0,1.09.02,1.62-.12.62-.16,1.17-.41,1.41-1.06.16-.43.18-.88.09-1.33-.13-.71-.55-1.12-1.25-1.28-.49-.11-.98-.18-1.48-.18-1.18-.02-2.37,0-3.55,0-.09,0-.13.02-.13.12,0,1.23,0,2.47,0,3.7,0,.13.04.16.16.16Z"/>
      <path class="cls-1" d="m22.5,0C10.07,0,0,10.07,0,22.5s10.07,22.5,22.5,22.5,22.5-10.07,22.5-22.5S34.93,0,22.5,0Zm4.41,14.41c0-.13.04-.17.17-.17,1.16,0,2.32,0,3.48,0s2.33,0,3.5,0c.1,0,.12.03.12.12,0,.52,0,1.03,0,1.55,0,.12-.04.14-.15.13-1.6,0-3.21,0-4.81,0-.72,0-1.44,0-2.15,0-.12,0-.16-.02-.16-.15,0-.49,0-.99,0-1.48Zm-6.01,15.8c-.72.62-1.57.95-2.5,1.11-.72.12-1.44.19-2.17.19-2.66,0-5.33,0-7.99,0-.17,0-.21-.04-.21-.21,0-1.55,0-3.11,0-4.66,0-1.51,0-3.03,0-4.54s0-3.03,0-4.54c0-1.32,0-2.64,0-3.95,0-.11.04-.13.13-.13.67,0,1.33,0,2,0,2.18,0,4.35,0,6.53,0,1.05,0,2.09.15,3.06.6,1.22.57,2.01,1.51,2.33,2.82.21.86.2,1.73-.02,2.59-.27,1.05-.95,1.77-1.89,2.26-.03.02-.07.04-.1.06,0,0,0,0-.01.03.85.32,1.56.82,2.05,1.59.43.68.63,1.43.68,2.22.11,1.82-.49,3.35-1.88,4.55Zm15.92-4.77c-1.51,0-3.03,0-4.54,0s-3.01,0-4.51,0c-.15,0-.19.04-.18.19.07.71.22,1.38.68,1.95.45.56,1.05.88,1.75,1,.69.12,1.37.11,2.03-.16.55-.22.95-.61,1.23-1.12.05-.1.11-.13.22-.13,1.05,0,2.1,0,3.15,0,.13,0,.15.03.13.16-.14.78-.56,1.41-1.06,1.99-1.02,1.19-2.33,1.81-3.86,2-1.23.15-2.44.09-3.61-.33-1.1-.4-2.08-.99-2.82-1.92-.54-.68-.85-1.47-1.03-2.31-.25-1.19-.27-2.39-.11-3.59.16-1.21.54-2.33,1.33-3.28.93-1.12,2.12-1.8,3.56-2.05,1.1-.2,2.19-.17,3.27.08,1.73.4,3,1.4,3.8,2.98.45.9.67,1.86.71,2.86.03.51.02,1.02.04,1.53,0,.13-.04.17-.17.17Z"/>
      <path class="cls-1" d="m17.75,23.84c-.45-.18-.92-.25-1.4-.25-1.35-.01-2.7,0-4.05-.01-.1,0-.12.03-.12.13,0,.76,0,1.51,0,2.27h0v.71c0,.51.01,1.02,0,1.53,0,.15.03.18.17.17,1.03,0,2.06,0,3.09,0,.55,0,1.11,0,1.66-.1.85-.16,1.48-.59,1.75-1.44.16-.49.19-1,.11-1.51-.12-.72-.53-1.22-1.21-1.49Z"/>
    </g>
  </g>
</svg>