<?xml version="1.0" encoding="UTF-8"?>
<svg id="Capa_2" data-name="Capa 2" xmlns="http://www.w3.org/2000/svg" viewBox="0 0 41.82 41.15">
  <defs>
    <style>
      .cls-1 {
        fill: #fff;
      }
    </style>
  </defs>
  <g id="Capa_1-2" data-name="Capa 1">
    <path class="cls-1" d="m15.77,38.3c0,.57,0,1.14,0,1.71,0,.78-.52,1.24-1.29,1.1-.85-.16-1.63-.54-2.4-.91-5-2.41-8.54-6.2-10.62-11.34C.62,26.77.16,24.59.04,22.34c-.26-4.56.8-8.8,3.27-12.63C6.64,4.56,11.35,1.37,17.41.33c5.86-1,11.23.3,15.98,3.86,4.6,3.45,7.33,8.08,8.18,13.78.67,4.49-.02,8.78-2.11,12.81-2.35,4.55-5.91,7.82-10.63,9.82-.39.17-.79.32-1.19.45-.99.32-1.66-.16-1.64-1.19.04-1.89.05-3.77.04-5.66,0-.8-.11-1.58-.41-2.33-.18-.46-.43-.88-.77-1.25-.07-.07-.19-.13-.15-.24.04-.12.17-.08.27-.09,1.35-.18,2.69-.45,3.96-.98,2.31-.97,3.89-2.63,4.62-5.03.65-2.13.84-4.29.33-6.48-.28-1.21-.86-2.27-1.68-3.2-.14-.16-.17-.3-.11-.51.53-1.7.39-3.37-.19-5.03-.08-.23-.24-.26-.44-.26-1.06-.02-2.01.37-2.95.8-.71.33-1.39.73-2.03,1.17-.24.16-.46.21-.75.14-1.73-.44-3.49-.65-5.27-.6-1.47.04-2.92.22-4.34.59-.32.08-.57.04-.84-.14-1.29-.85-2.64-1.6-4.18-1.89-1.02-.19-1.13-.14-1.41.85-.41,1.46-.45,2.93.01,4.39.06.19.04.33-.09.49-1.55,1.86-2.12,4.01-1.93,6.4.09,1.1.22,2.18.54,3.23.81,2.62,2.53,4.37,5.09,5.3,1.13.41,2.3.64,3.49.79.1.01.22-.03.27.08.05.12-.08.17-.14.24-.59.64-.89,1.41-1.03,2.25-.05.26-.16.42-.41.51-1.16.43-2.33.61-3.53.16-1.01-.38-1.71-1.11-2.26-2.01-.62-1.01-1.43-1.77-2.59-2.09-.36-.1-.72-.13-1.09-.05-.43.1-.51.35-.21.66.15.15.3.3.48.41,1.16.68,1.85,1.73,2.33,2.94.76,1.9,2.24,2.73,4.17,2.92.85.08,1.7.02,2.53-.15.39-.08.42-.05.42.36,0,.59,0,1.18,0,1.78h.01Z"/>
  </g>
</svg>