<?xml version="1.0" encoding="UTF-8"?>
<svg id="Capa_2" data-name="Capa 2" xmlns="http://www.w3.org/2000/svg" viewBox="0 0 50.19 49.38">
  <defs>
    <style>
      .cls-1 {
        fill: #268c5c;
      }
    </style>
  </defs>
  <g id="Capa_1-2" data-name="Capa 1">
    <path class="cls-1" d="m18.92,45.96c0,.68,0,1.37,0,2.05,0,.94-.62,1.49-1.54,1.32-1.02-.19-1.96-.65-2.89-1.1-6-2.89-10.25-7.44-12.74-13.61C.74,32.13.2,29.51.04,26.81c-.31-5.47.95-10.56,3.93-15.15C7.97,5.48,13.62,1.64,20.89.39c7.03-1.2,13.48.36,19.18,4.63,5.52,4.14,8.8,9.7,9.82,16.53.8,5.38-.03,10.53-2.53,15.37-2.82,5.46-7.1,9.38-12.76,11.78-.47.2-.94.39-1.43.54-1.19.38-1.99-.19-1.97-1.43.05-2.26.06-4.53.05-6.79,0-.96-.14-1.9-.49-2.79-.22-.55-.51-1.06-.92-1.5-.08-.08-.22-.15-.18-.29.05-.14.21-.09.32-.11,1.63-.22,3.22-.54,4.75-1.17,2.78-1.16,4.67-3.15,5.54-6.03.78-2.55,1.01-5.15.4-7.78-.33-1.45-1.04-2.72-2.01-3.85-.17-.2-.21-.36-.13-.61.63-2.04.47-4.05-.23-6.04-.1-.28-.29-.31-.53-.31-1.27-.02-2.42.44-3.54.96-.85.39-1.66.87-2.44,1.4-.29.2-.55.25-.9.17-2.08-.53-4.19-.77-6.33-.72-1.76.04-3.5.26-5.21.71-.38.1-.68.04-1.01-.17-1.55-1.02-3.17-1.92-5.02-2.27-1.23-.23-1.36-.16-1.69,1.02-.49,1.76-.54,3.52.02,5.27.07.23.05.39-.11.58-1.86,2.23-2.54,4.81-2.32,7.68.1,1.31.26,2.61.65,3.87.97,3.14,3.03,5.24,6.11,6.36,1.35.49,2.76.76,4.19.95.11.01.27-.03.32.1.06.14-.09.21-.17.29-.71.77-1.06,1.7-1.24,2.7-.05.32-.19.5-.49.61-1.39.51-2.8.74-4.24.2-1.21-.45-2.05-1.33-2.71-2.41-.74-1.21-1.72-2.12-3.11-2.51-.43-.12-.87-.16-1.31-.06-.51.12-.61.42-.25.79.18.18.37.36.58.49,1.39.82,2.22,2.08,2.8,3.52.91,2.28,2.69,3.28,5,3.5,1.02.1,2.04.03,3.04-.17.47-.09.5-.06.5.43,0,.71,0,1.42,0,2.13h.02Z"/>
  </g>
</svg>