<?xml version="1.0" encoding="UTF-8"?>
<svg id="Capa_2" data-name="Capa 2" xmlns="http://www.w3.org/2000/svg" xmlns:xlink="http://www.w3.org/1999/xlink" viewBox="0 0 516.47 440.4">
  <defs>
    <style>
      .cls-1 {
        fill: #175437;
      }

      .cls-2 {
        fill: #195c3d;
      }

      .cls-3 {
        clip-path: url(#clippath-20);
      }

      .cls-4 {
        clip-path: url(#clippath-11);
      }

      .cls-5 {
        clip-path: url(#clippath-16);
      }

      .cls-6 {
        fill: #fff;
      }

      .cls-7 {
        fill: #185739;
      }

      .cls-8 {
        fill: #165135;
      }

      .cls-9 {
        fill: #1a5f3f;
      }

      .cls-10 {
        fill: #21794f;
      }

      .cls-11 {
        fill: #185a3b;
      }

      .cls-12 {
        clip-path: url(#clippath-2);
      }

      .cls-13 {
        clip-path: url(#clippath-13);
      }

      .cls-14 {
        isolation: isolate;
      }

      .cls-15 {
        clip-path: url(#clippath-25);
      }

      .cls-16 {
        clip-path: url(#clippath-15);
      }

      .cls-17 {
        clip-path: url(#clippath-6);
      }

      .cls-18 {
        clip-path: url(#clippath-7);
      }

      .cls-19 {
        clip-path: url(#clippath-21);
      }

      .cls-20 {
        clip-path: url(#clippath-1);
      }

      .cls-21 {
        clip-path: url(#clippath-4);
      }

      .cls-22 {
        fill: #e1e1e1;
      }

      .cls-23 {
        fill: #1b6240;
      }

      .cls-24 {
        clip-path: url(#clippath-12);
      }

      .cls-25 {
        clip-path: url(#clippath-24);
      }

      .cls-26 {
        fill: #144930;
      }

      .cls-27 {
        clip-path: url(#clippath-22);
      }

      .cls-28 {
        clip-path: url(#clippath-9);
      }

      .cls-29 {
        clip-path: url(#clippath);
      }

      .cls-30 {
        fill: none;
      }

      .cls-31 {
        clip-path: url(#clippath-19);
      }

      .cls-32 {
        clip-path: url(#clippath-3);
      }

      .cls-33 {
        fill: #1b6542;
      }

      .cls-34 {
        clip-path: url(#clippath-8);
      }

      .cls-35 {
        fill: #154c32;
      }

      .cls-36 {
        fill: #88bf90;
      }

      .cls-37 {
        clip-path: url(#clippath-18);
      }

      .cls-38 {
        clip-path: url(#clippath-14);
      }

      .cls-39 {
        clip-path: url(#clippath-17);
      }

      .cls-40 {
        clip-path: url(#clippath-5);
      }

      .cls-41 {
        clip-path: url(#clippath-10);
      }

      .cls-42 {
        fill: #1d6c47;
      }

      .cls-43 {
        clip-path: url(#clippath-23);
      }

      .cls-44 {
        fill: #144b31;
      }

      .cls-45 {
        fill: #154e34;
      }
    </style>
    <clipPath id="clippath">
      <polygon class="cls-30" points="0 388.45 426.49 140.61 516.47 192.55 89.98 440.4 0 388.45"/>
    </clipPath>
    <clipPath id="clippath-1">
      <path class="cls-30" d="m381.33,74.52l-.5,175.46c0,.62-.41,1.24-1.23,1.72l.5-175.46c.82-.48,1.23-1.1,1.23-1.72Z"/>
    </clipPath>
    <clipPath id="clippath-2">
      <path class="cls-30" d="m305.23,249.96l.5-175.46c0,.63.41,1.26,1.24,1.74l-.5,175.46c-.83-.48-1.24-1.11-1.24-1.74Z"/>
    </clipPath>
    <clipPath id="clippath-3">
      <path class="cls-30" d="m346.63,95.69l-.5,175.46c-1.64.95-4.31.96-5.97,0l.5-175.46c1.66.96,4.33.95,5.97,0Z"/>
    </clipPath>
    <clipPath id="clippath-4">
      <polygon class="cls-30" points="314.78 73.65 343.2 57.14 371.79 73.65 343.37 90.16 314.78 73.65"/>
    </clipPath>
    <clipPath id="clippath-5">
      <polygon class="cls-30" points="325.27 255.25 325.5 173.89 336.83 180.43 336.6 261.79 325.27 255.25"/>
    </clipPath>
    <clipPath id="clippath-6">
      <path class="cls-30" d="m465.17,21.91l-.5,175.46c0,.62-.41,1.24-1.22,1.72l.5-175.46c.81-.47,1.22-1.09,1.22-1.72Z"/>
    </clipPath>
    <clipPath id="clippath-7">
      <path class="cls-30" d="m389.07,197.35l.5-175.46c0,.63.41,1.26,1.25,1.74l-.5,175.46c-.83-.48-1.25-1.11-1.25-1.74Z"/>
    </clipPath>
    <clipPath id="clippath-8">
      <path class="cls-30" d="m430.47,43.08l-.5,175.46c-1.64.95-4.32.95-5.97,0l.5-175.46c1.65.95,4.33.95,5.97,0Z"/>
    </clipPath>
    <clipPath id="clippath-9">
      <polygon class="cls-30" points="398.61 21.04 427.03 4.52 455.63 21.04 427.21 37.56 398.61 21.04"/>
    </clipPath>
    <clipPath id="clippath-10">
      <polygon class="cls-30" points="412.16 199.79 412.42 107.69 426.02 115.54 425.75 207.64 412.16 199.79"/>
    </clipPath>
    <clipPath id="clippath-11">
      <path class="cls-30" d="m129.7,302.42l-.25,87.73c0,.62-.41,1.24-1.23,1.72l.25-87.73c.82-.47,1.23-1.1,1.23-1.72Z"/>
    </clipPath>
    <clipPath id="clippath-12">
      <path class="cls-30" d="m53.85,390.13l.25-87.73c0,.63.41,1.25,1.24,1.73l-.25,87.73c-.83-.48-1.24-1.11-1.24-1.73Z"/>
    </clipPath>
    <clipPath id="clippath-13">
      <path class="cls-30" d="m95,323.59l-.25,87.73c-1.65.96-4.31.96-5.96,0l.25-87.73c1.65.95,4.31.95,5.96,0Z"/>
    </clipPath>
    <clipPath id="clippath-14">
      <polygon class="cls-30" points="64.15 302.18 92.55 285.67 121.15 302.18 92.74 318.69 64.15 302.18"/>
    </clipPath>
    <clipPath id="clippath-15">
      <polygon class="cls-30" points="61.55 391.81 61.72 332.62 86.2 346.76 86.03 405.94 61.55 391.81"/>
    </clipPath>
    <clipPath id="clippath-16">
      <path class="cls-30" d="m213.62,199.26l-.41,144.13c0,.62-.41,1.24-1.22,1.71l.41-144.13c.81-.47,1.22-1.09,1.22-1.71Z"/>
    </clipPath>
    <clipPath id="clippath-17">
      <path class="cls-30" d="m137.61,343.36l.41-144.13c0,.63.42,1.26,1.25,1.74l-.41,144.13c-.83-.48-1.25-1.11-1.25-1.74Z"/>
    </clipPath>
    <clipPath id="clippath-18">
      <path class="cls-30" d="m178.91,220.43l-.41,144.13c-1.64.95-4.3.95-5.96,0l.41-144.13c1.66.96,4.32.96,5.96,0Z"/>
    </clipPath>
    <clipPath id="clippath-19">
      <polygon class="cls-30" points="156.65 341.99 156.86 266.19 167.96 272.6 167.75 348.4 156.65 341.99"/>
    </clipPath>
    <clipPath id="clippath-20">
      <polygon class="cls-30" points="147.1 198.87 175.52 182.35 204.12 198.87 175.7 215.38 147.1 198.87"/>
    </clipPath>
    <clipPath id="clippath-21">
      <path class="cls-30" d="m297.46,144.83l-.41,144.13c0,.62-.41,1.24-1.23,1.72l.41-144.13c.82-.48,1.23-1.1,1.23-1.72Z"/>
    </clipPath>
    <clipPath id="clippath-22">
      <path class="cls-30" d="m221.45,288.94l.41-144.13c0,.63.41,1.26,1.25,1.74l-.41,144.13c-.83-.48-1.25-1.11-1.25-1.74Z"/>
    </clipPath>
    <clipPath id="clippath-23">
      <path class="cls-30" d="m262.76,166l-.41,144.13c-1.64.95-4.32.95-5.97,0l.41-144.13c1.65.95,4.33.95,5.97,0Z"/>
    </clipPath>
    <clipPath id="clippath-24">
      <polygon class="cls-30" points="240.66 288.33 240.88 209.72 251.83 216.04 251.6 294.65 240.66 288.33"/>
    </clipPath>
    <clipPath id="clippath-25">
      <polygon class="cls-30" points="234.65 139.71 253.56 128.72 284.21 146.42 265.3 157.41 234.65 139.71"/>
    </clipPath>
  </defs>
  <g id="Capa_1-2" data-name="Capa 1">
    <g>
      <g class="cls-14">
        <g class="cls-29">
          <path class="cls-36" d="m493.46,179.27l-43.96-25.38c-12.71-7.34-33.25-7.33-45.87,0L22.86,375.17c-12.62,7.33-12.56,19.23.15,26.57l43.96,25.38c12.71,7.34,33.25,7.33,45.87,0l380.77-221.28c12.62-7.33,12.56-19.23-.15-26.57"/>
        </g>
      </g>
      <g>
        <g class="cls-14">
          <g class="cls-14">
            <g class="cls-20">
              <g class="cls-14">
                <path class="cls-8" d="m381.33,74.52l-.5,175.46s0,.02,0,.04l.5-175.46s0-.02,0-.04"/>
                <path class="cls-1" d="m381.33,74.55l-.5,175.46c0,.08-.01.16-.03.24l.5-175.46c.02-.08.03-.16.03-.24"/>
                <path class="cls-7" d="m381.3,74.8l-.5,175.46c-.02.08-.04.16-.07.24l.5-175.46c.03-.08.05-.16.07-.24"/>
                <path class="cls-11" d="m381.24,75.03l-.5,175.46c-.03.08-.07.16-.11.24l.5-175.46c.04-.08.08-.16.11-.24"/>
                <path class="cls-2" d="m381.12,75.27l-.5,175.46c-.05.09-.1.17-.17.25l.5-175.46c.06-.08.12-.17.17-.25"/>
                <path class="cls-9" d="m380.95,75.52l-.5,175.46c-.08.1-.16.19-.26.28l.5-175.46c.1-.09.19-.19.26-.28"/>
                <path class="cls-23" d="m380.69,75.8l-.5,175.46c-.15.14-.33.27-.54.4l.5-175.46c.21-.12.39-.26.54-.4"/>
                <path class="cls-33" d="m380.15,76.2l-.5,175.46s-.03.02-.05.03l.5-175.46s.03-.02.05-.03"/>
              </g>
            </g>
          </g>
          <g class="cls-14">
            <g class="cls-12">
              <g class="cls-14">
                <path class="cls-26" d="m306.97,76.23l-.5,175.46c-.83-.48-1.24-1.11-1.24-1.74l.5-175.46c0,.63.41,1.26,1.24,1.74"/>
              </g>
            </g>
          </g>
          <polygon class="cls-42" points="380.1 76.23 379.6 251.7 346.13 271.15 346.63 95.69 380.1 76.23"/>
          <polygon class="cls-44" points="340.66 95.69 340.16 271.15 306.48 251.7 306.97 76.23 340.66 95.69"/>
          <g class="cls-14">
            <g class="cls-32">
              <g class="cls-14">
                <path class="cls-33" d="m346.63,95.69l-.5,175.46c-.28.16-.59.3-.92.41l.5-175.46c.33-.11.64-.24.92-.41"/>
                <path class="cls-23" d="m345.71,96.09l-.5,175.46c-.26.08-.52.15-.8.2l.5-175.46c.28-.05.54-.12.8-.2"/>
                <path class="cls-9" d="m344.91,96.29l-.5,175.46c-.18.03-.36.06-.54.08l.5-175.46c.18-.02.36-.04.54-.08"/>
                <path class="cls-2" d="m344.37,96.37l-.5,175.46c-.15.02-.31.03-.47.03l.5-175.46c.16,0,.31-.02.47-.03"/>
                <path class="cls-11" d="m343.9,96.4l-.5,175.46c-.14,0-.29,0-.43,0l.5-175.46c.14,0,.29,0,.43,0"/>
                <path class="cls-7" d="m343.47,96.4l-.5,175.46c-.14,0-.28-.01-.42-.02l.5-175.46c.14.01.28.02.42.02"/>
                <path class="cls-1" d="m343.05,96.38l-.5,175.46c-.14-.01-.27-.03-.41-.05l.5-175.46c.14.02.27.03.41.05"/>
                <path class="cls-8" d="m342.64,96.33l-.5,175.46c-.14-.02-.28-.04-.42-.07l.5-175.46c.14.03.28.05.42.07"/>
                <path class="cls-45" d="m342.22,96.26l-.5,175.46c-.15-.03-.3-.07-.44-.11l.5-175.46c.14.04.29.08.44.11"/>
                <path class="cls-35" d="m341.78,96.15l-.5,175.46c-.18-.05-.35-.11-.51-.17l.5-175.46c.17.07.34.12.51.17"/>
                <path class="cls-26" d="m341.27,95.98l-.5,175.46c-.21-.08-.42-.18-.61-.29l.5-175.46c.19.11.4.21.61.29"/>
              </g>
            </g>
          </g>
          <path class="cls-10" d="m380.08,72.78c1.66.96,1.67,2.5.02,3.46l-33.47,19.45c-1.64.95-4.31.96-5.97,0l-33.69-19.45c-1.65-.95-1.66-2.5-.02-3.46l33.47-19.45c1.65-.96,4.32-.95,5.97,0l33.69,19.45Z"/>
        </g>
        <g class="cls-14">
          <g class="cls-21">
            <g>
              <path class="cls-6" d="m343.49,74.35c-.08-.05-.2-.09-.35-.14-1.98-.59-3.94-1.19-6.03-1.82,1.1,1.19,2.15,2.3,3.15,3.42.1.11.19.2.29.25.21.12.46.11.82-.12.62-.39,1.27-.76,1.93-1.12.37-.2.42-.34.19-.47"/>
              <path class="cls-6" d="m342.13,82.21c-.15-.09-.24-.23-.35-.35-1.3-1.43-2.59-2.86-3.87-4.29-1.47-1.64-2.87-3.3-4.42-4.91-.68-.71-.66-1.23.51-1.69.16-.07.27-.16.42-.24,1.98-1.11,1.29-1.09,3.86-.33,5.08,1.48,10.14,2.99,15.22,4.48.41.12.69.21.84.29.3.17.08.33-.61.72-2.23,1.29-1.49,1.16-4.13.41-2.92-.84-2.93-.87-5.14.45-2.27,1.35-2.27.84-.64,2.61.08.08.14.16.22.24,1.17,1.28.94,1.77-1.14,2.58-.39.15-.61.12-.77.03m13.42-10.54c.62.36,1.24.71,1.87,1.06.01,0,.02.01.04.02.63.36.6.64-.04,1.01-1.77,1.01-1.83,1.16-2.8.6-.11-.06-.23-.13-.36-.21-.17-.11-.38-.23-.63-.37-.51-.29-1.01-.58-1.51-.87s-1-.58-1.5-.87c-1.5-.87-3-1.73-4.52-2.6-.01,0-.03-.02-.04-.02-.72-.41-.69-.7.03-1.11,1.68-.96,1.77-1.09,2.69-.55.1.06.21.12.33.2.12.07.24.14.38.22.07.04.15.08.23.13.38.21.75.43,1.13.65.75.43,1.5.87,2.25,1.3.82.47,1.63.95,2.45,1.42m-13.18-4.24s-.01,0-.02,0c-.82-.49-.79-1.22.05-1.72.88-.52,2.11-.56,2.96-.08.01,0,.02.01.03.02.81.47.8,1.3-.04,1.77-.81.46-2.21.48-2.99.03m27.27,4.97l-24.3-14.03c-1.19-.69-3.12-.68-4.29,0l-24.15,14.03c-1.17.68-1.17,1.8.01,2.48l24.3,14.03c1.18.68,3.12.68,4.29,0l24.15-14.03c1.17-.68,1.16-1.8-.01-2.48"/>
            </g>
          </g>
        </g>
        <g class="cls-14">
          <g class="cls-40">
            <g>
              <polyline class="cls-6" points="336.41 260.3 325.72 254.13 325.72 255.51 336.41 261.69 336.41 260.3"/>
              <polyline class="cls-6" points="336.43 255.46 325.28 249.03 325.28 250.38 336.42 256.81 336.43 255.46"/>
              <polyline class="cls-6" points="336.44 250.85 325.3 244.41 325.29 245.77 336.44 252.2 336.44 250.85"/>
              <path class="cls-6" d="m336.47,239.93l-7.89-4.56v1.34s4.51,2.61,4.51,2.61c.37.22.71.48,1.01.79.3.32.57.67.78,1.03.22.36.39.76.5,1.15.12.41.17.79.17,1.18,0,.8-.21,1.3-.64,1.49-.43.18-1.01.06-1.74-.36l-4.61-2.66v1.35s4.89,2.83,4.89,2.83c.47.27.89.44,1.29.51.38.06.72.03,1-.11.28-.13.49-.37.65-.71.15-.34.23-.78.23-1.34,0-.79-.14-1.51-.45-2.18-.29-.66-.66-1.26-1.09-1.81l1.37.79v-1.34"/>
              <path class="cls-6" d="m334.29,229.39l-.04-.02c-.35-.2-.65-.28-.89-.26-.25.03-.45.13-.63.31-.18.17-.32.41-.43.69-.11.28-.21.57-.31.86-.08.26-.16.51-.25.74-.08.24-.17.43-.28.59-.1.16-.22.27-.35.31-.14.06-.3.02-.48-.09l-.03-.02c-.32-.19-.6-.5-.82-.95-.22-.44-.32-.93-.32-1.46,0-.45.07-.86.21-1.25.14-.38.33-.72.56-1l-.88-1.13c-.27.32-.48.71-.64,1.2-.16.47-.24,1-.24,1.57,0,.44.05.87.15,1.32s.26.86.46,1.25c.2.4.44.75.71,1.06.28.32.59.57.92.76l.03.02c.37.22.68.3.92.26.24-.04.44-.16.61-.35.16-.19.3-.44.41-.74.11-.29.21-.59.3-.89.08-.25.15-.49.24-.71.08-.24.18-.42.28-.57.11-.14.24-.24.38-.28.14-.04.3,0,.5.11l.03.02c.38.22.7.57.91,1.05.22.48.34,1,.34,1.55s-.09,1.02-.27,1.45c-.18.44-.43.81-.75,1.1l.83,1.17c.36-.3.65-.73.86-1.28s.32-1.15.32-1.8c0-.45-.06-.91-.16-1.37-.11-.45-.25-.87-.46-1.28-.21-.4-.45-.77-.74-1.11-.28-.33-.62-.62-.99-.83"/>
              <path class="cls-6" d="m329.67,219.5l-1.04-.6v2.88s-2.39-1.38-2.39-1.38v1.35s2.38,1.38,2.38,1.38v1.26s1.04.6,1.04.6v-1.26s4.76,2.75,4.76,2.75c.39.23.74.36,1.02.4.29.03.52-.02.7-.14.18-.12.31-.32.39-.59.08-.27.12-.59.12-.95,0-.33-.03-.65-.08-.94-.06-.29-.15-.59-.25-.89l-1.01-.58c.11.3.18.55.21.78s.06.46.06.7c0,.45-.1.77-.29.94-.2.16-.54.11-1.03-.18l-4.6-2.66v-2.88"/>
              <path class="cls-6" d="m329.77,212.11l-1.27-.73c-.01.43.04.86.13,1.3.1.43.25.86.45,1.29.2.43.43.85.7,1.25.27.41.58.79.9,1.13l-2.06-1.19v1.35s7.89,4.56,7.89,4.56v-1.35s-3.14-1.81-3.14-1.81c-.59-.34-1.12-.74-1.57-1.18-.45-.45-.83-.93-1.14-1.44-.3-.5-.53-1.02-.68-1.55-.15-.52-.22-1.03-.22-1.53v-.1"/>
              <path class="cls-6" d="m334.2,211.91c-.51-.29-.91-.75-1.21-1.39-.29-.62-.44-1.36-.44-2.21,0-.56.03-1.04.1-1.44.08-.38.15-.74.24-1.03l.77.44c.31.18.6.42.85.73.26.31.49.66.68,1.05.19.38.33.78.44,1.21.11.42.15.85.15,1.26,0,.3-.03.58-.11.81-.07.23-.17.42-.31.55-.14.14-.31.21-.5.22s-.42-.06-.67-.2m2.36-5.22l-4.82-2.78c-1.05-.61-1.85-.74-2.38-.38-.54.35-.81,1.16-.81,2.4,0,.67.06,1.29.17,1.87.12.59.27,1.19.48,1.8l.96.16c-.18-.53-.31-1.04-.42-1.54-.11-.5-.15-1.02-.15-1.56,0-.85.18-1.41.55-1.67.36-.26.91-.19,1.61.22l.27.16c-.1.35-.19.72-.25,1.12-.06.39-.09.89-.09,1.47s.06,1.13.16,1.66.27,1.05.49,1.51c.21.47.48.89.79,1.26.32.38.7.68,1.11.92s.79.35,1.09.34c.3-.02.56-.13.77-.32.21-.21.37-.48.47-.82.1-.35.15-.73.15-1.14,0-.81-.13-1.56-.41-2.25-.27-.7-.59-1.3-.94-1.82l1.19.69v-1.3"/>
              <path class="cls-6" d="m329.73,195.15l-1.04-.6v2.88s-2.39-1.38-2.39-1.38v1.35s2.38,1.38,2.38,1.38v1.26s1.04.6,1.04.6v-1.26s4.76,2.75,4.76,2.75c.39.23.74.36,1.02.39.29.04.52,0,.7-.13.18-.12.31-.32.39-.59.08-.27.12-.59.12-.96,0-.32-.03-.64-.08-.93-.06-.29-.15-.59-.25-.89l-1.01-.58c.11.3.18.55.21.78.04.23.06.46.06.69,0,.46-.1.78-.29.94-.2.17-.54.12-1.03-.17l-4.6-2.66v-2.88"/>
              <path class="cls-6" d="m332.63,193.6c-.42-.24-.82-.56-1.19-.93-.37-.37-.7-.79-.98-1.24-.27-.44-.49-.92-.65-1.41-.16-.51-.23-.99-.23-1.49s.08-.88.24-1.2c.17-.31.39-.55.67-.69.28-.15.61-.19.98-.14.37.05.78.19,1.21.44s.82.57,1.19.93c.37.38.7.8.97,1.25.27.45.49.93.65,1.42.16.5.23.99.23,1.49s-.08.88-.25,1.19c-.17.31-.39.55-.66.68-.28.15-.6.18-.97.14s-.78-.19-1.21-.44m.03-8.07c-.56-.32-1.09-.51-1.59-.56-.49-.06-.93.01-1.31.23s-.67.53-.89.99c-.22.45-.33,1.02-.33,1.7s.1,1.38.32,2.09c.21.7.52,1.37.89,2.02.38.64.81,1.21,1.32,1.75.5.51,1.03.94,1.59,1.27s1.09.51,1.59.57c.5.05.93-.03,1.31-.23.37-.21.67-.54.89-.99.23-.43.34-1,.34-1.68s-.1-1.37-.33-2.09c-.21-.71-.51-1.38-.89-2.03-.37-.63-.81-1.21-1.31-1.75-.51-.53-1.04-.96-1.6-1.28"/>
              <path class="cls-6" d="m329.88,176.42l-1.27-.73c-.01.43.04.86.13,1.3.1.43.25.86.45,1.29.2.43.43.85.7,1.25.27.41.58.79.9,1.13l-2.06-1.19v1.35s7.89,4.56,7.89,4.56v-1.35s-3.14-1.81-3.14-1.81c-.59-.34-1.12-.74-1.57-1.18-.45-.45-.83-.93-1.14-1.44-.3-.5-.53-1.02-.68-1.55-.15-.53-.22-1.03-.22-1.52v-.11"/>
            </g>
          </g>
        </g>
      </g>
      <g>
        <g class="cls-14">
          <g class="cls-14">
            <g class="cls-17">
              <g class="cls-14">
                <path class="cls-8" d="m465.17,21.91l-.5,175.46s0,.02,0,.04l.5-175.46s0-.02,0-.04"/>
                <path class="cls-1" d="m465.17,21.94l-.5,175.46c0,.08-.01.16-.03.24l.5-175.46c.02-.08.03-.16.03-.24"/>
                <path class="cls-7" d="m465.14,22.19l-.5,175.46c-.02.08-.04.16-.07.24l.5-175.46c.03-.08.05-.16.07-.24"/>
                <path class="cls-11" d="m465.07,22.43l-.5,175.46c-.03.08-.07.16-.11.24l.5-175.46c.04-.08.08-.16.11-.24"/>
                <path class="cls-2" d="m464.96,22.67l-.5,175.46c-.05.09-.1.17-.17.25l.5-175.46c.06-.08.12-.17.17-.25"/>
                <path class="cls-9" d="m464.79,22.92l-.5,175.46c-.08.1-.16.19-.26.28l.5-175.46c.1-.09.19-.18.26-.28"/>
                <path class="cls-23" d="m464.53,23.2l-.5,175.46c-.15.14-.33.27-.53.39l.5-175.46c.2-.12.38-.25.53-.39"/>
                <path class="cls-33" d="m463.99,23.59l-.5,175.46s-.03.02-.05.03l.5-175.46s.03-.02.05-.03"/>
              </g>
            </g>
          </g>
          <g class="cls-14">
            <g class="cls-18">
              <g class="cls-14">
                <path class="cls-26" d="m390.81,23.62l-.5,175.46c-.83-.48-1.25-1.11-1.25-1.74l.5-175.46c0,.63.41,1.26,1.25,1.74"/>
              </g>
            </g>
          </g>
          <polygon class="cls-42" points="463.94 23.62 463.45 199.09 429.97 218.54 430.47 43.08 463.94 23.62"/>
          <polygon class="cls-44" points="424.5 43.08 424.01 218.54 390.32 199.09 390.81 23.62 424.5 43.08"/>
          <g class="cls-14">
            <g class="cls-34">
              <g class="cls-14">
                <path class="cls-33" d="m430.47,43.08l-.5,175.46c-.28.16-.59.3-.92.4l.5-175.46c.33-.11.64-.24.92-.4"/>
                <path class="cls-23" d="m429.55,43.48l-.5,175.46c-.26.08-.52.15-.8.2l.5-175.46c.28-.05.54-.12.8-.2"/>
                <path class="cls-9" d="m428.75,43.68l-.5,175.46c-.18.03-.36.06-.54.08l.5-175.46c.18-.02.36-.04.54-.08"/>
                <path class="cls-2" d="m428.21,43.75l-.5,175.46c-.16.02-.31.03-.47.03l.5-175.46c.16,0,.31-.02.47-.03"/>
                <path class="cls-11" d="m427.74,43.79l-.5,175.46c-.14,0-.29,0-.43,0l.5-175.46c.14,0,.29,0,.43,0"/>
                <path class="cls-7" d="m427.31,43.79l-.5,175.46c-.14,0-.28-.01-.42-.02l.5-175.46c.14.01.28.02.42.02"/>
                <path class="cls-1" d="m426.89,43.76l-.5,175.46c-.14-.01-.28-.03-.41-.05l.5-175.46c.14.02.27.03.41.05"/>
                <path class="cls-8" d="m426.48,43.72l-.5,175.46c-.14-.02-.28-.04-.42-.07l.5-175.46c.14.03.28.05.42.07"/>
                <path class="cls-45" d="m426.06,43.65l-.5,175.46c-.15-.03-.3-.07-.44-.11l.5-175.46c.14.04.29.08.44.11"/>
                <path class="cls-35" d="m425.62,43.54l-.5,175.46c-.18-.05-.35-.11-.51-.17l.5-175.46c.16.07.34.12.51.17"/>
                <path class="cls-26" d="m425.11,43.37l-.5,175.46c-.21-.08-.42-.18-.61-.29l.5-175.46c.19.11.39.21.61.29"/>
              </g>
            </g>
          </g>
          <path class="cls-10" d="m463.92,20.17c1.65.95,1.66,2.51.02,3.46l-33.47,19.45c-1.64.95-4.32.95-5.97,0l-33.69-19.45c-1.66-.96-1.66-2.5-.02-3.46L424.27.72c1.64-.95,4.31-.96,5.97,0l33.69,19.45Z"/>
        </g>
        <g class="cls-14">
          <g class="cls-28">
            <g>
              <path class="cls-6" d="m421.58,19.94c-.73-.42-1.78-.64-2.71-.5-1.23.18-2.19.62-2.95,1.21-.38.3-.4.54.06.8.02.01.04.02.06.03.3.16.59.33.88.5.58.34,1.16.68,1.74,1.01q1.21.7,2.63-.14c.09-.06.41-.24.64-.44.84-.7.83-1.52.04-2.2-.12-.1-.25-.19-.39-.28"/>
              <path class="cls-6" d="m411.69,22.06c-.76-.44-.89-.78-.05-1.33,1.51-1,3-2.02,4.92-2.78,2.52-.99,5.24-.9,7.49.22.12.06.24.12.35.19,1.82,1.05,2.32,2.61,1.24,4.03-.52.7-1.25,1.32-2.2,1.87-1.31.75-1.3.75.05,1.53.58.33,1.15.67,1.73,1.01.44.25.87.5,1.32.74.02.01.04.02.06.03.54.31.47.57-.04.89-1.75,1.14-1.74,1.15-3.63.06-1.78-1.03-3.55-2.05-5.33-3.08-1.18-.68-2.34-1.37-3.53-2.05-.74-.43-1.48-.85-2.24-1.26-.05-.03-.1-.06-.15-.08m17.94-4.11c.34.2.81.21,1.25.13.9-.17,1.75-.41,2.66-.59,1.52-.31,3.01-.37,4.41.26.19.09.37.18.53.27,1.08.62,1.5,1.4,1.09,2.29-.7,1.6-2.62,2.6-5.17,3.19-.54.12-.88.07-1.11-.07-.37-.21-.5-.63-.79-.87-.56-.47.29-.5.74-.62.93-.28,1.85-.55,2.51-1.03.48-.33.83-.7.34-1.13-.07-.06-.14-.11-.21-.15-.47-.27-1.08-.24-1.7-.12-1.19.24-2.31.62-3.59.72-1.41.11-2.67-.15-3.53-.65s-1.33-1.26-1.09-2.1c.24-.82.91-1.51,1.99-2.06.51-.34,1.13-.58,1.8-.79.9-.29,1.22-.35,1.6-.13.17.1.36.26.62.49.66.57.51.88-.62,1.1-.72.14-1.23.49-1.74.82-.41.26-.53.56-.21.88.06.06.13.11.21.16m23.85,1.85l-24.31-14.03c-1.18-.68-3.12-.68-4.3,0l-24.14,14.03c-1.17.68-1.16,1.8.01,2.48l24.31,14.03c1.18.68,3.12.68,4.29,0l24.14-14.03c1.18-.69,1.17-1.81,0-2.49"/>
            </g>
          </g>
        </g>
        <g class="cls-14">
          <g class="cls-41">
            <g>
              <path class="cls-6" d="m413.74,199.31v-3.11c.01-1,.21-1.69.59-2.07.39-.38.98-.35,1.76.1.35.2.68.47.96.79.29.33.54.71.75,1.12.21.42.36.88.48,1.35.11.48.16.98.16,1.48v3.05s-4.71-2.71-4.71-2.71m2.31-6.5c-.53-.31-1-.47-1.43-.5-.42-.03-.78.08-1.06.32-.3.22-.52.58-.68,1.06-.16.47-.24,1.06-.24,1.75v4.6s10.68,6.17,10.68,6.17v-1.39s-3.77-2.18-3.77-2.18v-2.99c.01-.65-.07-1.32-.21-1.99-.15-.66-.36-1.3-.65-1.91-.3-.62-.67-1.18-1.11-1.68-.43-.51-.94-.94-1.52-1.27"/>
              <path class="cls-6" d="m423.37,186.8l-4.9-2.83c-.47-.27-.9-.44-1.29-.51-.38-.06-.72-.03-1,.1-.28.15-.49.38-.65.72-.16.34-.23.78-.23,1.34,0,.78.14,1.51.45,2.17.29.67.66,1.27,1.09,1.82l-4.63-2.68v1.35s11.15,6.44,11.15,6.44v-1.35s-4.51-2.61-4.51-2.61c-.37-.22-.71-.48-1.01-.79-.3-.31-.57-.66-.78-1.03-.23-.37-.39-.76-.51-1.15-.12-.41-.17-.8-.17-1.18,0-.81.22-1.31.65-1.49.42-.19,1-.08,1.74.35l4.61,2.66v-1.34"/>
              <path class="cls-6" d="m419.41,180.8c-.42-.24-.82-.56-1.2-.93-.36-.38-.69-.79-.97-1.24-.27-.45-.5-.93-.65-1.43-.16-.5-.23-.99-.23-1.49s.09-.87.25-1.19c.17-.31.38-.55.67-.69.28-.15.61-.19.98-.14.37.05.78.2,1.2.44s.82.56,1.2.94c.37.37.7.79.97,1.24s.49.93.64,1.42c.16.51.23,1,.23,1.49s-.09.87-.25,1.2c-.17.31-.38.53-.66.68-.28.13-.6.18-.97.14-.37-.05-.78-.2-1.21-.45m.03-8.06c-.56-.32-1.09-.52-1.59-.57-.5-.05-.93.03-1.31.23s-.67.54-.89.99c-.22.45-.33,1.02-.33,1.7s.1,1.39.32,2.09.52,1.38.89,2.02c.37.63.81,1.21,1.32,1.75.5.53,1.03.94,1.59,1.27s1.09.52,1.59.57c.5.05.93-.03,1.31-.23.37-.2.67-.53.89-.98s.34-1,.34-1.69-.11-1.38-.33-2.09c-.21-.7-.51-1.38-.89-2.02-.37-.64-.81-1.23-1.31-1.75-.51-.53-1.04-.96-1.6-1.28"/>
              <path class="cls-6" d="m416.56,163.93l-1.03-.6v2.88s-2.39-1.38-2.39-1.38v1.35s2.38,1.38,2.38,1.38v1.26s1.03.6,1.03.6v-1.26s4.77,2.75,4.77,2.75c.39.23.74.36,1.02.39.29.04.52,0,.7-.13.18-.12.31-.32.39-.59.09-.26.13-.58.13-.94,0-.33-.03-.65-.09-.94-.05-.29-.14-.59-.24-.89l-1.01-.58c.1.29.18.55.21.78.04.23.06.46.06.7,0,.45-.1.77-.3.94-.19.16-.53.11-1.02-.17l-4.61-2.66v-2.88"/>
              <path class="cls-6" d="m419.46,162.38c-.42-.24-.82-.56-1.2-.94-.36-.37-.69-.78-.97-1.24-.27-.44-.5-.92-.65-1.42-.16-.5-.23-.99-.23-1.49s.09-.87.25-1.19c.17-.31.38-.55.67-.69.28-.15.61-.19.98-.14.37.05.78.19,1.2.43s.82.57,1.2.94c.37.38.7.8.97,1.25s.49.93.64,1.42.23.99.23,1.49-.09.87-.25,1.19c-.17.31-.38.55-.66.68-.28.15-.6.18-.97.14-.37-.03-.78-.19-1.21-.44m.03-8.06c-.56-.32-1.09-.52-1.59-.57-.5-.06-.93.01-1.31.23-.37.2-.67.53-.89.99-.22.45-.33,1.02-.33,1.7s.1,1.38.32,2.09c.21.7.52,1.37.89,2.02.37.63.81,1.21,1.32,1.75.5.53,1.03.94,1.59,1.27s1.09.52,1.59.57c.5.05.93-.03,1.31-.23.37-.21.67-.54.89-.98.22-.45.34-1.01.34-1.69s-.11-1.38-.33-2.09-.51-1.38-.89-2.03c-.37-.63-.81-1.21-1.31-1.75-.51-.53-1.04-.95-1.6-1.27"/>
              <path class="cls-6" d="m421.26,146.65l-.03-.02c-.35-.2-.66-.29-.89-.26-.25.03-.46.13-.63.31-.18.17-.32.41-.43.69-.11.28-.22.56-.31.86-.08.26-.17.5-.25.74s-.17.43-.28.59c-.1.16-.22.27-.35.31s-.3.02-.48-.09l-.04-.02c-.32-.19-.59-.5-.81-.94-.22-.44-.32-.93-.32-1.46,0-.45.07-.86.21-1.25.14-.38.33-.72.56-1l-.89-1.14c-.27.32-.47.72-.63,1.21-.16.47-.24,1-.24,1.56,0,.45.05.89.15,1.33s.26.86.46,1.25c.2.4.43.75.71,1.06.27.32.59.57.92.76l.03.02c.36.21.67.3.91.26s.45-.16.62-.34c.16-.2.3-.44.41-.74.11-.29.21-.59.3-.89.07-.25.15-.49.24-.71.08-.24.17-.42.28-.57.11-.14.24-.24.37-.28.15-.04.31,0,.51.11l.03.02c.38.22.69.57.91,1.05.22.48.33.99.33,1.55s-.08,1.03-.26,1.45c-.18.44-.43.81-.75,1.1l.83,1.17c.36-.3.64-.74.86-1.28.21-.55.31-1.16.31-1.81,0-.45-.05-.91-.15-1.37-.11-.45-.26-.87-.46-1.28-.21-.4-.45-.77-.74-1.11-.28-.33-.62-.62-1-.84"/>
              <path class="cls-6" d="m423.51,137.5l-4.9-2.83c-.47-.27-.9-.44-1.29-.51-.38-.06-.72-.03-1,.1-.28.15-.49.38-.65.72-.16.34-.23.78-.23,1.34,0,.78.14,1.51.45,2.17.29.67.66,1.27,1.09,1.82l-4.63-2.68v1.35s11.15,6.44,11.15,6.44v-1.35s-4.51-2.61-4.51-2.61c-.37-.22-.71-.48-1.01-.79-.3-.31-.57-.66-.78-1.03-.23-.37-.39-.76-.51-1.16-.12-.4-.17-.79-.17-1.17,0-.81.22-1.31.65-1.49.42-.2,1-.08,1.74.35l4.61,2.66v-1.34"/>
              <path class="cls-6" d="m419.55,131.5c-.42-.24-.82-.56-1.2-.93-.36-.38-.69-.79-.97-1.24-.27-.45-.5-.93-.65-1.43-.16-.5-.23-.99-.23-1.49s.09-.87.25-1.19c.17-.31.38-.55.67-.69.28-.15.61-.19.98-.14.37.05.78.2,1.2.44s.82.56,1.2.93c.37.38.7.8.97,1.25s.49.93.64,1.42c.16.51.23,1,.23,1.49s-.09.87-.25,1.19c-.17.32-.38.55-.66.69-.28.13-.6.18-.97.14-.37-.05-.78-.2-1.21-.45m.03-8.06c-.56-.32-1.09-.52-1.59-.57-.5-.05-.93.03-1.31.23s-.67.54-.89.99c-.22.45-.33,1.02-.33,1.7s.1,1.39.32,2.09.52,1.38.89,2.02c.37.63.81,1.21,1.32,1.75.5.53,1.03.94,1.59,1.27s1.09.52,1.59.57.93-.03,1.31-.23c.37-.2.67-.53.89-.98s.34-1.01.34-1.69-.11-1.38-.33-2.09-.51-1.38-.89-2.02c-.37-.64-.81-1.23-1.31-1.75-.51-.54-1.04-.96-1.6-1.28"/>
              <path class="cls-6" d="m419.59,119.69c-.45-.26-.87-.59-1.25-.99-.37-.4-.7-.83-.95-1.28-.26-.46-.47-.94-.62-1.41-.15-.48-.22-.93-.22-1.36s.08-.79.22-1.09c.15-.31.36-.53.62-.67.27-.13.59-.18.96-.13.37.05.8.2,1.27.47s.9.61,1.28,1c.38.39.71.8.96,1.24.25.43.45.88.59,1.36.14.47.2.92.2,1.35s-.07.8-.22,1.1c-.15.3-.36.54-.62.69-.27.15-.59.21-.96.18-.38-.04-.81-.19-1.26-.45m.02-7.85c-.65-.37-1.23-.6-1.74-.64s-.94.03-1.3.23c-.34.22-.62.52-.8.94-.19.41-.28.89-.28,1.43,0,.42.05.83.13,1.23.1.4.22.78.38,1.16.16.37.34.73.56,1.08.22.36.44.7.67,1.02l-1.58-.91v1.35s10.33,5.97,10.33,5.97v-1.35s-3.95-2.28-3.95-2.28c.23-.05.44-.13.64-.24.21-.11.38-.26.54-.46.15-.19.28-.43.37-.74.09-.3.14-.65.14-1.07,0-.55-.1-1.14-.28-1.78-.19-.63-.45-1.24-.8-1.85-.35-.6-.78-1.18-1.29-1.72-.51-.54-1.09-.99-1.74-1.36"/>
            </g>
          </g>
        </g>
      </g>
      <g>
        <g class="cls-14">
          <g class="cls-14">
            <g class="cls-4">
              <g class="cls-14">
                <path class="cls-8" d="m129.7,302.42l-.25,87.73s0,.02,0,.04l.25-87.73s0-.02,0-.04"/>
                <path class="cls-1" d="m129.7,302.45l-.25,87.73c0,.08-.01.16-.03.24l.25-87.73c.02-.08.03-.16.03-.24"/>
                <path class="cls-7" d="m129.67,302.7l-.25,87.73c-.02.08-.04.16-.07.24l.25-87.73c.03-.08.05-.16.07-.24"/>
                <path class="cls-11" d="m129.6,302.93l-.25,87.73c-.03.08-.07.16-.11.24l.25-87.73c.04-.08.08-.16.11-.24"/>
                <path class="cls-2" d="m129.49,303.17l-.25,87.73c-.05.09-.11.17-.17.25l.25-87.73c.07-.08.12-.17.17-.25"/>
                <path class="cls-9" d="m129.32,303.43l-.25,87.73c-.08.1-.16.19-.26.28l.25-87.73c.1-.09.19-.19.26-.28"/>
                <path class="cls-23" d="m129.06,303.71l-.25,87.73c-.15.14-.33.27-.53.4l.25-87.73c.2-.12.38-.26.53-.4"/>
                <path class="cls-33" d="m128.52,304.11l-.25,87.73s-.03.02-.05.03l.25-87.73s.03-.02.05-.03"/>
              </g>
            </g>
          </g>
          <g class="cls-14">
            <g class="cls-24">
              <g class="cls-14">
                <path class="cls-26" d="m55.34,304.14l-.25,87.73c-.83-.48-1.24-1.11-1.24-1.73l.25-87.73c0,.63.41,1.25,1.24,1.73"/>
              </g>
            </g>
          </g>
          <polygon class="cls-42" points="128.47 304.14 128.22 391.87 94.75 411.32 95 323.59 128.47 304.14"/>
          <polygon class="cls-44" points="89.04 323.59 88.79 411.32 55.09 391.87 55.34 304.14 89.04 323.59"/>
          <g class="cls-14">
            <g class="cls-13">
              <g class="cls-14">
                <path class="cls-33" d="m95,323.59l-.25,87.73c-.28.16-.6.3-.93.41l.25-87.73c.33-.11.65-.24.93-.41"/>
                <path class="cls-23" d="m94.07,324l-.25,87.73c-.26.08-.52.15-.8.2l.25-87.73c.28-.05.54-.12.8-.2"/>
                <path class="cls-9" d="m93.27,324.2l-.25,87.73c-.18.03-.36.06-.54.07l.25-87.73c.18-.02.36-.04.54-.07"/>
                <path class="cls-2" d="m92.73,324.27l-.25,87.73c-.15.02-.31.03-.47.03l.25-87.73c.16,0,.31-.02.47-.03"/>
                <path class="cls-11" d="m92.26,324.3l-.25,87.73c-.14,0-.29,0-.43,0l.25-87.73c.14,0,.29,0,.43,0"/>
                <path class="cls-7" d="m91.83,324.3l-.25,87.73c-.14,0-.28-.01-.41-.02l.25-87.73c.14.01.28.02.41.02"/>
                <path class="cls-1" d="m91.42,324.28l-.25,87.73c-.14-.01-.27-.03-.41-.05l.25-87.73c.13.02.27.03.41.05"/>
                <path class="cls-8" d="m91.01,324.24l-.25,87.73c-.14-.02-.28-.04-.42-.07l.25-87.73c.14.03.28.05.42.07"/>
                <path class="cls-45" d="m90.6,324.16l-.25,87.73c-.15-.03-.29-.07-.44-.11l.25-87.73c.14.04.29.08.44.11"/>
                <path class="cls-35" d="m90.16,324.06l-.25,87.73c-.18-.05-.35-.11-.51-.17l.25-87.73c.16.06.34.12.51.17"/>
                <path class="cls-26" d="m89.65,323.88l-.25,87.73c-.21-.08-.42-.18-.61-.29l.25-87.73c.19.11.39.21.61.29"/>
              </g>
            </g>
          </g>
          <path class="cls-10" d="m128.46,300.68c1.65.95,1.65,2.5,0,3.45l-33.47,19.45c-1.65.96-4.31.96-5.96,0l-33.7-19.46c-1.65-.95-1.66-2.49,0-3.45l33.47-19.45c1.64-.95,4.31-.96,5.96,0l33.7,19.46Z"/>
        </g>
        <g class="cls-14">
          <g class="cls-38">
            <g>
              <path class="cls-6" d="m101.57,297.27c-.07-.04-.16-.08-.27-.12-1.12-.43-2.33-.45-3.3,0-1.15.53-1.44,1.34-.82,2.17.11.15.22.27.35.35.24.14.53.12.96-.18.44-.29.95-.55,1.4-.83.51-.29.99-.59,1.52-.87.36-.2.43-.35.15-.51"/>
              <path class="cls-6" d="m87.86,312.67c-.13-.07-.26-.19-.39-.34-1.62-1.88-3.3-3.73-4.96-5.6-1.15-1.29-2.24-2.6-3.5-3.86-.67-.67-.57-1.13.46-1.58.22-.1.4-.23.59-.35,1.97-1.11,1.32-1.07,3.75-.36,5.26,1.54,10.51,3.09,15.75,4.64.4.12.67.2.81.29.29.17.09.32-.5.68-1.92,1.17-1.9,1.16-4.44.44-3.56-1.01-2.34-1.15-5.17.48-2.51,1.45-2.22.83-.67,2.65l.18.18c1.44,1.63,1.54,1.16-.66,2.51-.53.32-.89.4-1.25.2m8.53-10.39c-1.62-.93-2.7-2.22-2.65-3.44.08-1.67,1.52-2.9,4.09-3.6,2.64-.73,4.98-.18,7.05.83.4.19.72.35.96.49.89.52.6.73-.78,1.52-.65.38-1.3.75-1.94,1.13h0c-.93.53-1.83,1.08-2.78,1.61-.33.18-.38.3-.19.41.08.05.2.09.35.14,1.32.41,2.88.29,4.2-.38.96-.49,1.82-1.03,2.47-1.67.22-.23.41-.6,1.02-.34.39.17,1.04.26,1.4.47.21.12.33.29.23.54-.84,2.16-5.87,4.05-9.5,3.6-1.42-.18-2.79-.65-3.9-1.3m22.61-1.34l-24.3-14.03c-1.19-.69-3.12-.68-4.29,0l-24.14,14.03c-1.18.69-1.17,1.8.01,2.48l24.3,14.03c1.18.68,3.11.69,4.29,0l24.14-14.03c1.17-.68,1.16-1.8-.01-2.48"/>
              <path class="cls-6" d="m89.3,304.68c-.07-.04-.17-.08-.3-.12-2.1-.63-4.2-1.28-6.44-1.96,1.32,1.19,2.35,2.39,3.42,3.56.1.1.19.19.29.25.22.13.48.13.85-.1.65-.4,1.33-.79,2.02-1.17.33-.18.38-.33.16-.46"/>
            </g>
          </g>
        </g>
        <g class="cls-14">
          <g class="cls-16">
            <g>
              <path class="cls-6" d="m68.88,392.6l-5.44-5.94,5.46.35-.02,5.59m3.92-6.82l-10.78-.62v1.31s10.75,11.81,10.75,11.81v-1.42s-2.82-3.09-2.82-3.09l.02-6.69,2.83.19v-1.49"/>
              <path class="cls-6" d="m62.82,373.08l-1.02-.59c-.07.19-.12.38-.15.59-.03.21-.05.47-.05.78,0,.88.22,1.69.66,2.42.45.73,1.11,1.35,1.97,1.85l.69.4v1.24s1.02.59,1.02.59v-1.24s6.87,3.96,6.87,3.96v-1.35s-6.86-3.96-6.86-3.96v-2.87s-.99-.58-.99-.58v2.89s-.66-.37-.66-.37c-1.12-.65-1.68-1.5-1.67-2.55,0-.24.02-.44.06-.62.03-.19.08-.37.14-.59"/>
              <path class="cls-6" d="m65.97,368.49l-1.04-.6v2.88s-2.38-1.37-2.38-1.37v1.35s2.37,1.37,2.37,1.37v1.26s1.04.6,1.04.6v-1.26s4.77,2.75,4.77,2.75c.39.23.74.36,1.02.4.29.03.52-.02.7-.14.18-.12.31-.32.39-.59.09-.26.13-.58.13-.94,0-.33-.03-.64-.09-.94-.05-.29-.14-.59-.24-.89l-1.01-.58c.1.29.17.55.21.78.04.24.06.46.06.7,0,.45-.1.77-.3.94-.19.17-.53.11-1.02-.17l-4.61-2.66v-2.88"/>
              <path class="cls-6" d="m68.46,366.7c-.38-.27-.74-.57-1.07-.92-.32-.36-.61-.72-.84-1.12-.23-.4-.42-.8-.56-1.21s-.21-.82-.21-1.22c0-.46.08-.81.23-1.07.15-.26.35-.43.59-.54.25-.1.53-.11.86-.06.32.05.67.17,1.02.34l-.02,5.8m.7-6.79l-.17-.1c-.58-.33-1.13-.56-1.64-.66-.51-.11-.95-.09-1.33.06-.38.14-.68.41-.9.82-.22.39-.34.92-.34,1.6,0,.63.1,1.27.32,1.92.21.65.51,1.29.88,1.89.36.6.8,1.15,1.3,1.67.51.51,1.04.92,1.61,1.25.62.36,1.18.57,1.68.61.51.05.95-.03,1.32-.22.35-.21.64-.52.84-.96.2-.44.3-.97.3-1.59,0-.86-.12-1.66-.4-2.41-.26-.73-.63-1.46-1.08-2.18l-.65.47c.33.56.6,1.12.8,1.69s.3,1.17.3,1.8c0,.41-.06.74-.18,1.04-.12.3-.29.54-.52.69-.23.15-.5.24-.84.23-.33,0-.71-.1-1.14-.31l.02-7.17-.2-.12"/>
              <path class="cls-6" d="m66.12,350.72l-1.28-.74c0,.43.04.86.13,1.29.11.43.25.87.45,1.3.21.43.44.85.71,1.25.27.41.57.78.9,1.14l-2.07-1.2v1.35s7.9,4.56,7.9,4.56v-1.35s-3.15-1.82-3.15-1.82c-.59-.34-1.11-.73-1.56-1.18-.45-.45-.83-.92-1.14-1.44-.3-.49-.53-1.02-.68-1.54-.16-.53-.22-1.03-.22-1.53v-.1"/>
              <polyline class="cls-6" points="85.88 395.82 84.78 395.18 84.76 402.76 81.02 400.6 81.03 393.89 79.93 393.26 79.92 399.97 76.26 397.86 76.29 390.36 75.19 389.72 75.16 398.6 85.85 404.77 85.88 395.82"/>
              <path class="cls-6" d="m75.91,382.74l-1.02-.59c-.08.18-.13.38-.16.59-.03.22-.05.48-.05.8,0,.87.22,1.68.67,2.41.44.73,1.1,1.35,1.96,1.84l.69.4v1.25s1.03.6,1.03.6v-1.25s6.86,3.96,6.86,3.96v-1.34s-6.85-3.96-6.85-3.96v-2.87s-1-.58-1-.58v2.88s-.65-.37-.65-.37c-1.12-.65-1.68-1.5-1.67-2.55,0-.24.01-.45.05-.61.04-.18.09-.38.15-.59"/>
              <path class="cls-6" d="m75.93,376.31l-1.02-.59c-.08.17-.13.37-.16.57-.03.22-.05.48-.05.8,0,.88.22,1.69.67,2.42.44.73,1.1,1.33,1.96,1.83l.69.4v1.25s1.03.6,1.03.6v-1.25s6.86,3.96,6.86,3.96v-1.34s-6.85-3.96-6.85-3.96v-2.87s-1-.58-1-.58v2.88s-.65-.37-.65-.37c-1.12-.65-1.68-1.49-1.67-2.55,0-.23.01-.45.05-.61.04-.18.09-.38.15-.58"/>
              <path class="cls-6" d="m81.54,377.02c-.39-.28-.75-.59-1.07-.93-.32-.36-.61-.72-.85-1.12-.23-.4-.42-.8-.56-1.21-.14-.42-.2-.82-.2-1.21,0-.45.07-.82.22-1.07s.35-.43.59-.53.53-.12.86-.07c.33.06.67.17,1.03.35l-.02,5.81m.69-6.81l-.17-.1c-.58-.33-1.13-.56-1.63-.66-.51-.11-.95-.09-1.34.05-.37.15-.68.41-.9.82s-.33.94-.33,1.61.1,1.27.31,1.93c.21.65.51,1.28.88,1.89.37.6.8,1.15,1.31,1.66.5.5,1.04.93,1.61,1.26.61.35,1.17.55,1.68.6.51.06.94-.02,1.31-.23.36-.2.64-.52.84-.96.21-.43.31-.95.31-1.57,0-.87-.13-1.67-.4-2.41-.27-.75-.63-1.47-1.08-2.19l-.66.47c.33.56.61,1.14.8,1.71.2.57.31,1.17.31,1.81,0,.39-.06.74-.18,1.04-.12.29-.3.52-.52.68-.24.16-.51.24-.85.23-.33-.01-.71-.11-1.14-.31l.02-7.19-.2-.12"/>
              <path class="cls-6" d="m84.62,361.41l-.71.45c.33.56.62,1.14.84,1.72.21.56.33,1.15.33,1.74,0,.49-.08.88-.24,1.19-.16.3-.38.53-.66.67-.28.13-.61.18-.98.13s-.78-.19-1.21-.44-.82-.56-1.19-.93c-.37-.38-.7-.8-.98-1.25-.27-.45-.49-.91-.64-1.4-.16-.5-.24-.98-.24-1.43,0-.62.12-1.07.36-1.36.24-.29.52-.52.85-.7l-.82-1.38c-.2.1-.38.22-.55.37-.18.15-.33.33-.45.55-.13.22-.23.48-.3.79-.08.3-.11.68-.11,1.11,0,.68.1,1.35.32,2.05.21.69.52,1.35.89,1.98.38.64.81,1.21,1.32,1.75.5.51,1.03.94,1.59,1.27s1.09.51,1.59.57c.5.05.93-.03,1.31-.23.37-.2.67-.52.89-.96.23-.44.34-.99.34-1.67,0-.85-.14-1.65-.43-2.39-.29-.75-.65-1.47-1.1-2.2"/>
              <path class="cls-6" d="m79.14,351.31l-1.04-.6v2.88s-2.39-1.38-2.39-1.38v1.35s2.38,1.38,2.38,1.38v1.26s1.04.6,1.04.6v-1.26s4.76,2.75,4.76,2.75c.39.23.74.36,1.02.39.29.04.52,0,.7-.13.18-.12.31-.32.39-.59.08-.27.12-.59.12-.95,0-.33-.03-.65-.08-.94-.06-.29-.15-.59-.25-.89l-1.01-.58c.11.3.18.55.21.78s.06.46.06.7c0,.45-.1.77-.29.94-.2.16-.54.11-1.03-.18l-4.6-2.66v-2.88"/>
              <path class="cls-6" d="m83.8,345.37l-.03-.02c-.35-.2-.65-.3-.89-.26-.25.02-.45.12-.63.3-.18.18-.32.42-.43.7-.11.28-.21.57-.31.86-.08.26-.16.51-.25.74-.08.24-.17.43-.28.59-.1.16-.22.27-.35.31-.14.04-.3.02-.48-.09l-.03-.02c-.32-.19-.6-.5-.82-.95-.22-.44-.32-.93-.32-1.46,0-.45.07-.86.21-1.25s.33-.72.56-1.01l-.89-1.12c-.26.33-.47.72-.63,1.19-.16.48-.24,1.01-.24,1.57,0,.45.05.89.15,1.33.11.45.26.86.46,1.25.2.4.43.73.71,1.06.28.31.59.57.92.76l.03.02c.37.22.68.3.92.26.24-.04.44-.16.61-.35.16-.2.3-.44.41-.74.11-.29.21-.59.3-.89.08-.25.15-.49.24-.71.08-.24.18-.42.28-.57.11-.15.24-.24.37-.28.15-.04.31-.01.51.1l.03.02c.38.22.69.58.91,1.06.22.48.34,1,.34,1.55s-.09,1.02-.27,1.45-.43.81-.75,1.1l.83,1.17c.36-.31.65-.73.86-1.28s.32-1.15.32-1.8c0-.45-.06-.91-.16-1.37-.11-.45-.25-.87-.46-1.28-.21-.4-.45-.78-.74-1.11-.28-.34-.62-.62-1-.84"/>
            </g>
          </g>
        </g>
      </g>
      <g>
        <g class="cls-14">
          <g class="cls-14">
            <g class="cls-5">
              <g class="cls-14">
                <path class="cls-8" d="m213.62,199.26l-.41,144.13s0,.02,0,.04l.41-144.13s0-.02,0-.04"/>
                <path class="cls-1" d="m213.62,199.3l-.41,144.13c0,.08-.01.16-.03.24l.41-144.13c.02-.08.03-.16.03-.24"/>
                <path class="cls-7" d="m213.59,199.54l-.41,144.13c-.02.08-.04.16-.07.24l.41-144.13c.03-.08.05-.16.07-.24"/>
                <path class="cls-11" d="m213.52,199.78l-.41,144.13c-.03.08-.07.16-.11.24l.41-144.13c.04-.08.08-.16.11-.24"/>
                <path class="cls-2" d="m213.41,200.02l-.41,144.13c-.05.09-.1.17-.17.25l.41-144.13c.06-.08.12-.17.17-.25"/>
                <path class="cls-9" d="m213.24,200.27l-.41,144.13c-.08.1-.16.19-.26.28l.41-144.13c.1-.09.19-.18.26-.28"/>
                <path class="cls-23" d="m212.98,200.55l-.41,144.13c-.15.14-.33.27-.53.39l.41-144.13c.2-.12.38-.26.53-.39"/>
                <path class="cls-33" d="m212.45,200.94l-.41,144.13s-.03.02-.05.03l.41-144.13s.03-.02.05-.03"/>
              </g>
            </g>
          </g>
          <g class="cls-14">
            <g class="cls-39">
              <g class="cls-14">
                <path class="cls-26" d="m139.26,200.97l-.41,144.13c-.83-.48-1.25-1.11-1.25-1.74l.41-144.13c0,.63.42,1.26,1.25,1.74"/>
              </g>
            </g>
          </g>
          <polygon class="cls-42" points="212.39 200.97 211.98 345.1 178.5 364.56 178.91 220.43 212.39 200.97"/>
          <polygon class="cls-44" points="172.95 220.42 172.55 364.55 138.86 345.1 139.26 200.97 172.95 220.42"/>
          <g class="cls-14">
            <g class="cls-37">
              <g class="cls-14">
                <path class="cls-33" d="m178.91,220.43l-.41,144.13c-.28.16-.59.3-.92.41l.41-144.13c.33-.11.64-.24.92-.41"/>
                <path class="cls-23" d="m177.99,220.83l-.41,144.13c-.25.08-.52.15-.8.2l.41-144.13c.27-.05.54-.12.8-.2"/>
                <path class="cls-9" d="m177.2,221.03l-.41,144.13c-.18.03-.35.06-.54.07l.41-144.13c.18-.02.36-.04.54-.07"/>
                <path class="cls-2" d="m176.66,221.11l-.41,144.13c-.15.02-.31.03-.47.03l.41-144.13c.16,0,.31-.02.47-.03"/>
                <path class="cls-11" d="m176.19,221.14l-.41,144.13c-.14,0-.29,0-.43,0l.41-144.13c.14,0,.29,0,.43,0"/>
                <path class="cls-7" d="m175.76,221.14l-.41,144.13c-.14,0-.28-.01-.41-.02l.41-144.13c.14.01.28.02.41.02"/>
                <path class="cls-1" d="m175.35,221.12l-.41,144.13c-.14-.01-.27-.03-.41-.05l.41-144.13c.14.02.27.03.41.05"/>
                <path class="cls-8" d="m174.94,221.07l-.41,144.13c-.14-.02-.28-.04-.42-.07l.41-144.13c.14.03.28.05.42.07"/>
                <path class="cls-45" d="m174.52,221l-.41,144.13c-.15-.03-.3-.07-.44-.11l.41-144.13c.14.04.29.08.44.11"/>
                <path class="cls-35" d="m174.08,220.89l-.41,144.13c-.18-.05-.35-.11-.51-.17l.41-144.13c.17.07.34.12.51.17"/>
                <path class="cls-26" d="m173.57,220.72l-.41,144.13c-.22-.09-.42-.18-.61-.29l.41-144.13c.19.11.4.21.61.29"/>
              </g>
            </g>
          </g>
          <path class="cls-10" d="m212.36,197.52c1.66.96,1.67,2.5.03,3.45l-33.48,19.46c-1.64.95-4.3.95-5.96,0l-33.69-19.45c-1.65-.95-1.67-2.5-.03-3.45l33.48-19.46c1.64-.95,4.31-.95,5.96,0l33.69,19.45Z"/>
        </g>
        <g class="cls-14">
          <g class="cls-31">
            <g>
              <path class="cls-6" d="m157.99,341.37v-3.11c.01-.99.21-1.68.6-2.05.39-.38.98-.35,1.76.1.35.2.68.47.96.79.29.33.54.71.75,1.12.21.42.36.86.47,1.34.12.49.17.98.17,1.49v3.03s-4.72-2.72-4.72-2.72m2.32-6.48c-.53-.31-1.01-.47-1.43-.5-.42-.03-.78.08-1.06.32-.3.22-.52.58-.68,1.06-.16.47-.24,1.06-.24,1.75v4.59s10.68,6.17,10.68,6.17v-1.39s-3.77-2.18-3.77-2.18v-2.98c.01-.65-.07-1.32-.21-1.99s-.36-1.3-.66-1.92c-.29-.61-.66-1.17-1.1-1.68-.43-.5-.94-.93-1.52-1.26"/>
              <path class="cls-6" d="m160.85,327.84l-1.27-.73c-.01.43.03.86.13,1.3.1.43.24.86.44,1.29.21.43.44.85.71,1.25.27.41.57.78.9,1.14l-2.06-1.19v1.35s7.89,4.56,7.89,4.56v-1.35s-3.15-1.82-3.15-1.82c-.59-.34-1.11-.74-1.56-1.18-.45-.45-.83-.93-1.14-1.44-.3-.5-.53-1.02-.68-1.54-.15-.52-.22-1.04-.22-1.53v-.11"/>
              <path class="cls-6" d="m163.23,326.34c-.38-.27-.74-.57-1.06-.92-.33-.36-.61-.72-.85-1.12-.23-.4-.42-.8-.56-1.21s-.2-.82-.2-1.21c0-.46.07-.82.22-1.07.15-.26.35-.43.59-.54.25-.1.53-.11.86-.06s.67.17,1.02.33l-.02,5.81m.7-6.79l-.17-.1c-.58-.33-1.13-.56-1.64-.68-.51-.1-.95-.09-1.33.07-.37.15-.68.41-.9.82-.22.39-.33.93-.33,1.6s.09,1.27.31,1.93c.21.65.51,1.29.88,1.89.36.6.8,1.15,1.3,1.66.51.52,1.04.93,1.61,1.26.62.36,1.18.56,1.69.61.5.04.94-.03,1.31-.23.35-.21.64-.52.84-.96.2-.44.31-.96.31-1.58,0-.86-.13-1.67-.41-2.41-.26-.73-.63-1.47-1.07-2.17l-.66.47c.33.56.6,1.12.8,1.69.2.57.3,1.17.3,1.8,0,.39-.06.74-.18,1.04-.12.29-.29.53-.52.68-.23.16-.5.25-.84.24-.33,0-.71-.1-1.14-.31l.02-7.17-.2-.12"/>
              <path class="cls-6" d="m167.68,305.55l-4.89-2.82c-.98-.57-1.77-.73-2.33-.45-.57.27-.85.93-.85,1.99,0,.39.04.78.11,1.14.08.37.19.73.33,1.06.15.34.31.68.51.99.19.31.39.61.61.9-.45-.01-.83.13-1.13.43-.3.31-.44.84-.45,1.57,0,.38.04.74.11,1.08.08.34.18.67.32.98.14.32.3.63.48.91.19.29.37.55.57.83l-1.33-.77v1.35s7.89,4.56,7.89,4.56v-1.35s-4.5-2.6-4.5-2.6c-.36-.21-.7-.47-1-.77-.3-.31-.56-.63-.78-.99-.23-.36-.39-.71-.52-1.09-.12-.37-.18-.75-.18-1.11,0-.72.21-1.18.62-1.36.41-.18.99-.05,1.74.38l4.64,2.68v-1.33s-4.55-2.63-4.55-2.63c-.38-.22-.73-.49-1.03-.8-.31-.32-.57-.64-.77-.99-.21-.36-.36-.71-.47-1.07-.11-.37-.17-.73-.16-1.07,0-.73.21-1.19.62-1.37.41-.18,1-.04,1.77.4l4.61,2.66v-1.35"/>
              <path class="cls-6" d="m167.7,301.15l-7.89-4.56v1.34s7.89,4.56,7.89,4.56v-1.34m-9.62-5.67l-1.3-.75v1.55s1.29.75,1.29.75v-1.55"/>
              <path class="cls-6" d="m163.32,294.65c-.38-.27-.74-.57-1.06-.93-.33-.35-.61-.72-.85-1.11-.23-.4-.42-.8-.56-1.21s-.2-.83-.2-1.22c0-.45.07-.81.22-1.07.15-.25.35-.43.59-.53.25-.1.53-.12.86-.06.32.05.67.16,1.02.33l-.02,5.81m.7-6.81l-.17-.1c-.58-.33-1.13-.55-1.64-.66-.51-.1-.95-.09-1.33.06-.37.15-.68.42-.9.82-.22.41-.33.94-.33,1.61s.09,1.27.31,1.93c.21.65.51,1.29.88,1.89.36.59.8,1.15,1.3,1.66.51.51,1.04.93,1.61,1.26.62.36,1.18.56,1.69.61.5.04.94-.03,1.31-.23.35-.21.64-.53.84-.96.2-.44.31-.96.31-1.58,0-.87-.13-1.67-.41-2.41-.26-.74-.63-1.47-1.07-2.17l-.66.46c.33.58.6,1.14.8,1.71.2.57.3,1.17.3,1.8,0,.39-.06.74-.18,1.04-.12.29-.29.52-.52.68-.23.16-.5.24-.84.24-.33,0-.71-.1-1.14-.31l.02-7.17-.2-.14"/>
              <path class="cls-6" d="m160.99,278.66l-1.27-.73c-.01.43.03.85.13,1.3.1.43.24.85.44,1.28.21.43.44.85.71,1.26.27.41.57.78.9,1.13l-2.06-1.19v1.35s7.89,4.56,7.89,4.56v-1.35s-3.15-1.82-3.15-1.82c-.59-.34-1.11-.73-1.56-1.17-.45-.45-.83-.93-1.14-1.44-.3-.5-.53-1.02-.68-1.55-.15-.52-.22-1.03-.22-1.52v-.11"/>
              <path class="cls-6" d="m163.37,277.16c-.38-.27-.74-.57-1.06-.93-.33-.35-.61-.72-.85-1.11-.23-.4-.42-.8-.56-1.21s-.2-.83-.2-1.22c0-.45.07-.81.22-1.07.15-.25.35-.43.59-.53.25-.1.53-.11.86-.06s.67.16,1.02.33l-.02,5.81m.7-6.81l-.17-.1c-.58-.33-1.13-.55-1.64-.66-.51-.1-.95-.09-1.33.06-.37.16-.68.42-.9.83-.22.39-.33.93-.33,1.6s.09,1.27.31,1.93c.21.65.51,1.29.88,1.89.36.59.8,1.15,1.3,1.66.51.52,1.04.93,1.61,1.26.62.36,1.18.56,1.69.61.5.04.94-.03,1.31-.23.35-.21.64-.52.84-.96.2-.44.31-.96.31-1.58,0-.87-.13-1.67-.41-2.41-.26-.74-.63-1.47-1.07-2.17l-.66.46c.33.58.6,1.14.8,1.71.2.57.3,1.17.3,1.8,0,.39-.06.74-.18,1.04-.12.29-.29.52-.52.68-.23.16-.5.25-.84.24-.33,0-.71-.1-1.14-.31l.02-7.17-.2-.14"/>
            </g>
          </g>
        </g>
        <g class="cls-14">
          <g class="cls-3">
            <g>
              <path class="cls-6" d="m171.06,198.24c-1.39-.8-3.32-.69-5.09.34-1.1.64-1.1.81,0,1.46l1.18.68c.36.21.72.41,1.08.61.18.1.36.21.53.32.02.01.04.02.06.04.5.29.96.28,1.44-.03.37-.25.8-.45,1.14-.71.96-.73,1.07-1.48.35-2.18-.21-.2-.44-.37-.69-.52"/>
              <path class="cls-6" d="m161.01,200.5c-.79-.45-.92-.81-.08-1.38,1.55-1.03,3.05-2.06,5-2.84,2.53-1.01,5.2-.97,7.51.07.22.1.42.2.61.31,1.75,1.01,2.28,2.48,1.36,3.93-.53.83-1.42,1.53-2.51,2.15-1.1.63-1.08.64.04,1.3.73.42,1.46.85,2.19,1.27.37.21.73.42,1.1.63.01,0,.03.01.04.02.53.31.6.58,0,.91-2,1.11-1.89,1.32-3.14.59-.09-.05-.19-.11-.3-.17l-.61-.35c-.58-.33-1.15-.66-1.72-.99-1.15-.66-2.29-1.33-3.44-1.99-1.08-.62-2.14-1.25-3.22-1.87-.9-.52-1.8-1.03-2.73-1.54-.03-.02-.07-.04-.1-.06m14.79-4.65c-.53-.3-.59-.53.01-.81l.17-.1q1.46-.87,3.18-.11c-.37-.89-.22-1.69.64-2.41.65-.53,1.09-.54,1.92-.1.19.1.35.19.52.29q1.21.7.12,1.46c-1.09.77-.93,1.7.55,2.6.75.46,1.51.91,2.29,1.36.69.4,1.4.79,2.11,1.18.03.02.07.04.1.05.72.41.8.72-.04,1.17-1.73.93-1.66,1.1-2.76.47-.09-.05-.18-.11-.28-.17-.14-.09-.3-.19-.49-.29-2.67-1.52-5.3-3.06-7.98-4.57-.02,0-.03-.02-.05-.03m26.17,1.77l-24.31-14.03c-1.18-.68-3.12-.68-4.29,0l-24.15,14.03c-1.17.68-1.16,1.8.01,2.48l24.31,14.03c1.18.68,3.12.68,4.29,0l24.15-14.03c1.17-.68,1.16-1.8-.01-2.48"/>
            </g>
          </g>
        </g>
      </g>
      <g>
        <g class="cls-14">
          <g class="cls-14">
            <g class="cls-19">
              <g class="cls-14">
                <path class="cls-8" d="m297.46,144.83l-.41,144.13s0,.02,0,.04l.41-144.13s0-.02,0-.04"/>
                <path class="cls-1" d="m297.46,144.87l-.41,144.13c0,.08-.01.16-.03.24l.41-144.13c.02-.08.03-.16.03-.24"/>
                <path class="cls-7" d="m297.43,145.11l-.41,144.13c-.02.08-.04.16-.07.24l.41-144.13c.03-.08.05-.16.07-.24"/>
                <path class="cls-11" d="m297.36,145.35l-.41,144.13c-.03.08-.07.16-.11.24l.41-144.13c.04-.08.08-.16.11-.24"/>
                <path class="cls-2" d="m297.25,145.58l-.41,144.13c-.05.09-.1.17-.17.25l.41-144.13c.06-.08.12-.17.17-.25"/>
                <path class="cls-9" d="m297.08,145.84l-.41,144.13c-.08.1-.16.19-.26.28l.41-144.13c.1-.09.19-.19.26-.28"/>
                <path class="cls-23" d="m296.82,146.12l-.41,144.13c-.15.14-.33.27-.54.4l.41-144.13c.21-.12.38-.26.54-.4"/>
                <path class="cls-33" d="m296.28,146.51l-.41,144.13s-.03.02-.05.03l.41-144.13s.03-.02.05-.03"/>
              </g>
            </g>
          </g>
          <g class="cls-14">
            <g class="cls-27">
              <g class="cls-14">
                <path class="cls-26" d="m223.1,146.55l-.41,144.13c-.83-.48-1.25-1.11-1.25-1.74l.41-144.13c0,.63.41,1.26,1.25,1.74"/>
              </g>
            </g>
          </g>
          <polygon class="cls-42" points="296.23 146.54 295.82 290.68 262.35 310.13 262.76 166 296.23 146.54"/>
          <polygon class="cls-44" points="256.79 166 256.38 310.13 222.69 290.68 223.1 146.55 256.79 166"/>
          <g class="cls-14">
            <g class="cls-43">
              <g class="cls-14">
                <path class="cls-33" d="m262.76,166l-.41,144.13c-.28.16-.59.3-.92.4l.41-144.13c.33-.11.64-.24.92-.4"/>
                <path class="cls-23" d="m261.84,166.4l-.41,144.13c-.26.08-.52.15-.8.2l.41-144.13c.28-.05.54-.12.8-.2"/>
                <path class="cls-9" d="m261.04,166.6l-.41,144.13c-.18.03-.36.06-.54.08l.41-144.13c.18-.02.36-.04.54-.08"/>
                <path class="cls-2" d="m260.5,166.67l-.41,144.13c-.16.02-.31.03-.47.03l.41-144.13c.16,0,.31-.02.47-.03"/>
                <path class="cls-11" d="m260.03,166.71l-.41,144.13c-.14,0-.29,0-.43,0l.41-144.13c.14,0,.29,0,.43,0"/>
                <path class="cls-7" d="m259.6,166.71l-.41,144.13c-.14,0-.28-.01-.42-.02l.41-144.13c.14.01.28.02.42.02"/>
                <path class="cls-1" d="m259.18,166.69l-.41,144.13c-.14-.01-.28-.03-.41-.05l.41-144.13c.14.02.27.03.41.05"/>
                <path class="cls-8" d="m258.77,166.64l-.41,144.13c-.14-.02-.28-.04-.42-.07l.41-144.13c.14.03.28.05.42.07"/>
                <path class="cls-45" d="m258.35,166.57l-.41,144.13c-.15-.03-.3-.07-.44-.11l.41-144.13c.14.04.29.08.44.11"/>
                <path class="cls-35" d="m257.91,166.46l-.41,144.13c-.18-.05-.35-.11-.51-.17l.41-144.13c.16.07.34.12.51.17"/>
                <path class="cls-26" d="m257.4,166.29l-.41,144.13c-.21-.08-.42-.18-.61-.29l.41-144.13c.19.11.39.21.61.29"/>
              </g>
            </g>
          </g>
          <path class="cls-10" d="m296.21,143.09c1.65.95,1.67,2.5.02,3.46l-33.47,19.45c-1.64.95-4.32.95-5.97,0l-33.69-19.45c-1.66-.96-1.66-2.51-.02-3.46l33.47-19.45c1.65-.96,4.31-.96,5.97,0l33.69,19.45Z"/>
        </g>
        <g class="cls-14">
          <g class="cls-25">
            <g>
              <path class="cls-6" d="m248.39,284.12c-.48-.28-.91-.43-1.28-.41-.37,0-.68.12-.93.35-.25.22-.43.54-.56.96-.14.41-.22.88-.27,1.38l-3.71-5.98-.88-.51-.02,7.83,1.06.61.02-6,3.81,6.07.72.13v-.78c0-1.03.19-1.74.55-2.18.36-.43.88-.44,1.54-.06.31.18.6.41.86.7.25.29.48.62.67.96.18.34.31.7.41,1.08s.15.76.14,1.15c0,.76-.14,1.34-.42,1.77-.28.42-.67.72-1.18.9l.78,1.46c.57-.17,1.03-.53,1.38-1.1.36-.55.53-1.35.54-2.38,0-.58-.08-1.15-.23-1.74-.16-.59-.38-1.16-.66-1.68-.28-.53-.62-1.01-1.02-1.46-.39-.44-.83-.8-1.31-1.08"/>
              <path class="cls-6" d="m241.88,276.01v-2.88c.01-.77.12-1.4.35-1.91.22-.51.51-.88.9-1.1.38-.21.84-.3,1.36-.23.52.06,1.07.26,1.67.6s1.15.79,1.66,1.32c.51.53.95,1.14,1.33,1.79.38.66.67,1.37.89,2.13.21.76.32,1.52.32,2.29v2.88s-8.47-4.89-8.47-4.89m4.24-6.96c-.75-.43-1.45-.68-2.1-.74-.66-.06-1.22.05-1.7.36-.48.3-.86.77-1.12,1.42-.28.64-.41,1.45-.41,2.41v4.26s10.67,6.17,10.67,6.17v-4.26c.01-.96-.12-1.92-.39-2.88-.27-.96-.64-1.86-1.12-2.72-.47-.86-1.04-1.63-1.69-2.32-.66-.7-1.36-1.26-2.12-1.7"/>
              <path class="cls-6" d="m249.3,261.93l-.03-.02c-.36-.21-.66-.3-.9-.27s-.45.13-.63.31c-.17.19-.32.42-.42.7-.12.27-.22.56-.31.86-.09.25-.17.5-.25.74-.09.23-.18.43-.28.59-.11.15-.23.26-.36.31s-.3.02-.48-.09l-.03-.02c-.32-.19-.6-.5-.81-.94-.22-.45-.33-.94-.33-1.48,0-.44.07-.85.21-1.23s.33-.72.56-1.01l-.88-1.12c-.27.31-.48.71-.64,1.19-.16.48-.24,1.01-.24,1.57,0,.45.06.89.16,1.34.1.44.25.86.45,1.24.2.38.44.74.71,1.06.28.31.59.57.92.76l.04.02c.36.21.67.3.91.26.25-.04.44-.16.61-.35.17-.2.3-.44.41-.74.11-.29.21-.59.31-.88.07-.25.15-.49.23-.72.08-.24.18-.42.29-.57s.23-.24.37-.28c.14-.04.31-.01.5.1l.03.02c.39.23.7.58.92,1.06.21.47.33.99.33,1.55s-.09,1.02-.27,1.45c-.17.43-.43.81-.75,1.1l.84,1.18c.35-.31.64-.74.85-1.28s.32-1.15.32-1.8c0-.45-.05-.91-.15-1.37-.11-.45-.26-.88-.47-1.29-.2-.4-.45-.78-.73-1.11-.29-.34-.63-.61-1-.83"/>
              <polyline class="cls-6" points="251.56 243.45 240.88 237.28 240.88 238.69 246.7 246.54 240.85 247.64 240.85 249.05 251.53 255.21 251.53 253.86 242.9 248.87 248.62 247.69 248.62 247.62 242.9 239.84 251.56 244.83 251.56 243.45"/>
              <path class="cls-6" d="m247.69,235.36l-5.45-5.95,5.47.35-.02,5.59m3.91-6.82l-10.77-.62v1.31s10.74,11.81,10.74,11.81v-1.42s-2.81-3.08-2.81-3.08l.02-6.69,2.82.18v-1.49"/>
              <polyline class="cls-6" points="251.64 215.94 246.17 217.51 240.96 209.95 240.96 211.56 245.3 217.81 240.93 219.07 240.93 220.7 246.17 219.19 251.61 227.05 251.61 225.44 247.03 218.87 251.64 217.59 251.64 215.94"/>
            </g>
          </g>
        </g>
        <g class="cls-14">
          <g class="cls-15">
            <g>
              <path class="cls-6" d="m272.63,142.27s-.08-.04-.11-.06c-.11-.06-.23-.13-.35-.19-.16-.08-.33-.16-.5-.24-1.66-.75-3.51-1.16-5.56-1.27-.08,0-.15,0-.21-.02-.06,0-.11-.02-.14-.04h0s-.05-.05-.05-.08c0-.03.01-.06.04-.09,0-.01.02-.03.03-.04.05-.06.07-.13-.03-.22-.28.18-.33.41-.5.61-.56.72-1.24,1.41-2.22,1.97-.06.04-.13.07-.2.11-1.21.63-2.58,1.11-4.25,1.22-.03,0-.06,0-.09,0-.13.01-.28.03-.38-.02,0,0-.02,0-.02-.02-.12-.09.06-.18.13-.27,1.08-1.39,1.81-2.83,1.86-4.36.05-1.24-.4-2.4-1.69-3.41-.18-.14-.36-.27-.55-.4-.14-.1-.29-.19-.44-.28-.05-.03-.1-.06-.15-.09-.09-.05-.17-.1-.26-.15-.67-.36-1.41-.66-2.22-.89-.7-.2-1.46-.35-2.28-.44-.13-.01-.25-.03-.38-.04-2.28-.2-4.37.16-6.34.83-.97.33-1.83.72-2.58,1.17-.86.51-1.59,1.09-2.19,1.73-.05.05-.1.09-.16.13-.04.02-.08.04-.13.06h0c.07.06.03.1-.03.13-.02.01-.05.03-.08.04l-.07.13.07-.13-.07.13c-.36.65-.48,1.33-.48,2.01.02,1.75.98,3.31,2.88,4.68.05.03.1.07.15.1.49.28,1.01.28,1.57-.02,1.66-.85,3.31-1.72,4.98-2.57.24-.13.3-.22.1-.4-.48-.41-.61-.87-.43-1.37.15-.42.51-.78.97-1.1,1.38-.99,3.6-1.59,5.84-1.19.16.03.28.07.37.12.13.07.18.17.18.3.03.44-.1.86-.27,1.27-.67,1.6-1.76,3.11-3.3,4.5-.17.16-.17.26.05.38.01,0,.03.01.04.02.25.13.48.26.72.4s.47.28.71.41c1.41.82,1.48.83,3.36.41.22-.05.42-.1.62-.15,2.13-.57,3.67-1.53,4.99-2.62.19-.15.38-.2.68-.19,1.19.02,2.22.3,3.15.71.17.08.33.17.49.26.13.07.25.15.37.23,1.13.75,1.67,1.64,1.32,2.7-.21.6-.7,1.08-1.38,1.47-.53.3-1.18.55-1.89.75-1.28.37-2.61.33-3.97.09-.15.52.22.92.77,1.26.06.04.12.07.18.11.34.2.69.36,1.06.5,1.9.72,4.12.65,6.12-.06.08-.03.15-.06.23-.08.62-.24,1.18-.49,1.67-.77,2.12-1.2,2.99-2.77,2.75-4.61,0-.04-.01-.08-.02-.11-.09-.49-.29-.95-.6-1.38-.43-.59-1.07-1.12-1.89-1.59"/>
              <path class="cls-22" d="m262.66,133.98c-1.38-.8-3.11-1.4-5.02-1.74-5.95-1.06-12.18.3-15.48,3.34-.65.6-1.24,1.21-1.46,1.92.05-.02.09-.04.13-.06.06-.04.11-.08.16-.13.6-.65,1.33-1.23,2.19-1.73.76-.45,1.62-.84,2.58-1.17,1.96-.66,4.05-1.03,6.34-.83.13.01.26.02.38.04.82.09,1.57.24,2.28.44.81.23,1.55.53,2.22.89.09.05.18.1.26.15.05.03.1.06.15.09.15.09.29.18.44.28.19.13.37.26.55.4,1.29,1,1.74,2.17,1.69,3.41-.05,1.53-.79,2.97-1.86,4.36-.07.09-.24.18-.13.27,0,0,.01.01.02.02.1.06.24.04.38.02.03,0,.06,0,.09,0,1.67-.11,3.04-.58,4.25-1.22.07-.04.13-.07.2-.11.97-.55,1.65-1.24,2.22-1.97.17-.2.21-.43.5-.61.1.09.08.16.03.22-.01.01-.02.03-.03.04-.02.04-.04.07-.04.09,0,.03.02.06.05.08h0s.08.03.14.04c.06,0,.13.01.21.02,2.06.11,3.91.52,5.56,1.27.17.08.34.16.5.24.12.06.24.12.35.19.04.02.08.04.11.06.82.47,1.45,1,1.89,1.59.31.43.52.89.6,1.38,0,.04.01.08.02.11.24,1.84-.63,3.41-2.75,4.61-.49.28-1.05.54-1.67.77-.08.03-.15.06-.23.08-2.01.71-4.22.77-6.12.06-.37-.14-.72-.3-1.06-.5-.06-.03-.12-.07-.18-.11-.55-.34-.92-.74-.77-1.26,1.36.24,2.69.28,3.97-.09.71-.21,1.36-.45,1.89-.75.68-.39,1.18-.87,1.38-1.47.35-1.06-.19-1.95-1.32-2.7-.12-.08-.24-.15-.37-.23-.15-.09-.32-.18-.49-.26.22.19.44.38.59.59,1.23,1.72-.84,3.42-3.07,3.87-1.49.29-2.94.18-4.37-.14-.21-.05-.37-.12-.57.03-1.28,1-2.57,2.01-3.89,3-.32.26-.38.52-.27.8.08.25.29.46.6.64.02.01.04.02.05.03,2.92,1.6,6.43,2.2,10.34,1.88,5.27-.44,8.95-2.18,11.14-4.93,2.12-2.68,1.51-5.23-1.84-7.48-.21-.14-.44-.28-.66-.41-2.43-1.4-5.47-2.05-9-1.98-.2,0-.34,0-.42-.04-.07-.04-.09-.11-.07-.23.27-2.04-1.06-3.86-3.32-5.16"/>
              <path class="cls-6" d="m240.69,137.5l-.12.17s0,0,0,0h0s0,0,0,0c.03-.01.05-.03.08-.04.06-.03.1-.07.03-.12"/>
              <polyline class="cls-6" points="240.58 137.66 240.58 137.66 240.52 137.79 240.58 137.66 240.58 137.66"/>
            </g>
          </g>
        </g>
      </g>
    </g>
  </g>
</svg>