<?xml version="1.0" encoding="UTF-8"?>
<svg id="Capa_2" data-name="Capa 2" xmlns="http://www.w3.org/2000/svg" xmlns:xlink="http://www.w3.org/1999/xlink" viewBox="0 0 146.81 84.18">
  <defs>
    <style>
      .cls-1 {
        fill: #fff;
      }

      .cls-2 {
        fill: #96c0a7;
      }

      .cls-3 {
        fill: #acc78e;
      }

      .cls-4 {
        fill: #268c5c;
      }

      .cls-5 {
        fill: #d7e8e2;
      }

      .cls-6 {
        fill: #bbd7cb;
      }

      .cls-7 {
        fill: none;
      }

      .cls-8 {
        fill: url(#New_Pattern_Swatch_2);
        stroke: #fff;
        stroke-linecap: round;
        stroke-linejoin: round;
        stroke-width: .8px;
      }
    </style>
    <pattern id="New_Pattern_Swatch_2" data-name="New Pattern Swatch 2" x="0" y="0" width="87" height="87" patternTransform="translate(-1078.01 -1391.79)" patternUnits="userSpaceOnUse" viewBox="0 0 87 87">
      <g>
        <rect class="cls-7" width="87" height="87"/>
        <rect class="cls-3" width="87" height="87"/>
      </g>
    </pattern>
  </defs>
  <g id="Capa_1-2" data-name="Capa 1">
    <g>
      <g>
        <path class="cls-4" d="m5.02,0h122.61c2.77,0,5.02,2.25,5.02,5.02v73.79c0,2.77-2.25,5.02-5.02,5.02H5.02c-2.77,0-5.02-2.25-5.02-5.02V5.02C0,2.25,2.25,0,5.02,0Z"/>
        <path class="cls-5" d="m122.28,77.77H10.37c-2.6,0-4.71-2.11-4.71-4.71V10.78c0-2.6,2.11-4.71,4.71-4.71h111.92c2.6,0,4.71,2.11,4.71,6.15v62.28c0,1.17-2.11,3.28-4.71,3.28Z"/>
        <path class="cls-6" d="m95.44,6.07v71.7h22.74c3,0,8.82.8,8.82-5.19V12.21s1.61-6.34-7.07-6.34-24.49.2-24.49.2Z"/>
        <path class="cls-7" d="m122.28,77.77H10.37c-2.6,0-4.71-2.11-4.71-4.71V10.78c0-2.6,2.11-4.71,4.71-4.71h111.92c2.6,0,4.71,2.11,4.71,6.15v62.28c0,1.17-2.11,3.28-4.71,3.28Z"/>
        <g>
          <g>
            <g>
              <line class="cls-8" x1="14.91" y1="19.21" x2="17.12" y2="19.21"/>
              <line class="cls-8" x1="18.22" y1="15.9" x2="18.22" y2="18.11"/>
            </g>
            <g>
              <line class="cls-8" x1="84.41" y1="15.9" x2="84.41" y2="18.11"/>
              <line class="cls-8" x1="87.72" y1="19.21" x2="85.51" y2="19.21"/>
            </g>
          </g>
          <g>
            <g>
              <line class="cls-8" x1="14.91" y1="65.54" x2="17.12" y2="65.54"/>
              <line class="cls-8" x1="18.22" y1="68.85" x2="18.22" y2="66.65"/>
            </g>
            <g>
              <line class="cls-8" x1="84.41" y1="68.85" x2="84.41" y2="66.65"/>
              <line class="cls-8" x1="87.72" y1="65.54" x2="85.51" y2="65.54"/>
            </g>
          </g>
        </g>
      </g>
      <g>
        <rect class="cls-6" x="141.58" y="79.04" width="1.68" height="5.14" rx=".59" ry=".59" transform="translate(284.89 163.12) rotate(179.96)"/>
        <path class="cls-2" d="m146.75,6.04l.06,70.57-2.19,4.06h-4.39s-2.2-4.05-2.2-4.05l-.06-70.58s.93-3.07,4-3.08c3.06,0,4.79,3.07,4.79,3.07Z"/>
        <rect class="cls-6" x="140.62" y="49.51" width="3.57" height="20.83" rx=".59" ry=".59"/>
        <line class="cls-1" x1="138.02" y1="76.62" x2="146.81" y2="76.61"/>
        <line class="cls-1" x1="137.96" y1="6.04" x2="146.75" y2="6.04"/>
      </g>
    </g>
  </g>
</svg>