<?xml version="1.0" encoding="UTF-8"?>
<svg id="Capa_2" data-name="Capa 2" xmlns="http://www.w3.org/2000/svg" xmlns:xlink="http://www.w3.org/1999/xlink" viewBox="0 0 60.15 63.57">
  <defs>
    <style>
      .cls-1 {
        fill: #8f8963;
      }

      .cls-2 {
        fill: #948e66;
      }

      .cls-3 {
        fill: #db7688;
      }

      .cls-4 {
        fill: #ada778;
      }

      .cls-5 {
        fill: #b2c4a6;
      }

      .cls-6 {
        fill: #95a48b;
      }

      .cls-7 {
        fill: #707b68;
      }

      .cls-8 {
        fill: #8d9b83;
      }

      .cls-9 {
        fill: #cd6e7f;
      }

      .cls-10 {
        fill: #a0b095;
      }

      .cls-11 {
        fill: #d17182;
      }

      .cls-12 {
        fill: #f196a6;
      }

      .cls-13 {
        fill: #72a594;
      }

      .cls-14 {
        fill: #b6c9aa;
      }

      .cls-15 {
        fill: #854853;
      }

      .cls-16 {
        fill: #6c7764;
      }

      .cls-17 {
        fill: #857f5c;
      }

      .cls-18 {
        fill: #99a98f;
      }

      .cls-19 {
        fill: #814550;
      }

      .cls-20 {
        clip-path: url(#clippath-2);
      }

      .cls-21 {
        fill: #89967f;
      }

      .cls-22 {
        isolation: isolate;
      }

      .cls-23 {
        fill: #7c8974;
      }

      .cls-24 {
        fill: #f29eae;
      }

      .cls-25 {
        fill: #e97d91;
      }

      .cls-26 {
        fill: #bacdae;
      }

      .cls-27 {
        fill: #c36979;
      }

      .cls-28 {
        fill: #ee8094;
      }

      .cls-29 {
        fill: #e47b8e;
      }

      .cls-30 {
        fill: #808d78;
      }

      .cls-31 {
        clip-path: url(#clippath-6);
      }

      .cls-32 {
        fill: #c3d6b5;
      }

      .cls-33 {
        fill: #a75a68;
      }

      .cls-34 {
        fill: #bed2b2;
      }

      .cls-35 {
        fill: #6f7a68;
      }

      .cls-36 {
        fill: #d9eace;
      }

      .cls-37 {
        fill: #47665c;
      }

      .cls-38 {
        fill: #e0788b;
      }

      .cls-39 {
        fill: #d5e7c8;
      }

      .cls-40 {
        clip-path: url(#clippath-7);
      }

      .cls-41 {
        fill: #cbdfbd;
      }

      .cls-42 {
        clip-path: url(#clippath-1);
      }

      .cls-43 {
        clip-path: url(#clippath-4);
      }

      .cls-44 {
        fill: #fff5b0;
      }

      .cls-45 {
        fill: #f29aaa;
      }

      .cls-46 {
        fill: #ab5c6b;
      }

      .cls-47 {
        fill: #b56170;
      }

      .cls-48 {
        fill: #80454f;
      }

      .cls-49 {
        fill: #d67385;
      }

      .cls-50 {
        fill: #a6b69a;
      }

      .cls-51 {
        fill: #cfe4c1;
      }

      .cls-52 {
        fill: #b8b07f;
      }

      .cls-53 {
        fill: #ba6473;
      }

      .cls-54 {
        fill: #a39d71;
      }

      .cls-55 {
        fill: #c7dbb9;
      }

      .cls-56 {
        fill: #be6676;
      }

      .cls-57 {
        fill: #9dad93;
      }

      .cls-58 {
        clip-path: url(#clippath);
      }

      .cls-59 {
        fill: #99936a;
      }

      .cls-60 {
        fill: #91a087;
      }

      .cls-61 {
        fill: #8f4d59;
      }

      .cls-62 {
        fill: #7c434d;
      }

      .cls-63 {
        fill: none;
      }

      .cls-64 {
        clip-path: url(#clippath-3);
      }

      .cls-65 {
        fill: #dcebd2;
      }

      .cls-66 {
        fill: #669385;
      }

      .cls-67 {
        fill: #dbead0;
      }

      .cls-68 {
        fill: #dcd398;
      }

      .cls-69 {
        fill: #98525f;
      }

      .cls-70 {
        fill: #a8a274;
      }

      .cls-71 {
        fill: #9e986d;
      }

      .cls-72 {
        fill: #c86c7c;
      }

      .cls-73 {
        fill: #8a4a56;
      }

      .cls-74 {
        fill: #84927c;
      }

      .cls-75 {
        fill: #788470;
      }

      .cls-76 {
        clip-path: url(#clippath-5);
      }

      .cls-77 {
        fill: #aec0a2;
      }

      .cls-78 {
        fill: #aabb9e;
      }

      .cls-79 {
        fill: #d7e9cc;
      }

      .cls-80 {
        fill: #a25765;
      }

      .cls-81 {
        fill: #944f5c;
      }

      .cls-82 {
        fill: #b05f6e;
      }

      .cls-83 {
        fill: #9d5462;
      }

      .cls-84 {
        fill: #74806c;
      }

      .cls-85 {
        fill: #a1b297;
      }

      .cls-86 {
        fill: #b3ab7b;
      }

      .cls-87 {
        fill: #f3a2b1;
      }

      .cls-88 {
        fill: #f08fa1;
      }

      .cls-89 {
        fill: #8a845f;
      }
    </style>
    <clipPath id="clippath">
      <path class="cls-63" d="m1.06,36.27l4.85-2.82c.66-.39,1.58-.33,2.59.25l-4.85,2.82c-1.01-.58-1.93-.64-2.59-.25Z"/>
    </clipPath>
    <clipPath id="clippath-1">
      <path class="cls-63" d="m11.07,42.33l-4.85,2.82c.65-.38,1.06-1.19,1.06-2.34,0-2.32-1.61-5.12-3.63-6.29l4.85-2.82c2.02,1.16,3.64,3.97,3.63,6.29,0,1.15-.41,1.96-1.06,2.34Z"/>
    </clipPath>
    <clipPath id="clippath-2">
      <path class="cls-63" d="m12.45,32.49l2.69-1.56c.37-.21.87-.18,1.44.14l-2.69,1.56c-.56-.32-1.07-.35-1.44-.14Z"/>
    </clipPath>
    <clipPath id="clippath-3">
      <path class="cls-63" d="m18,35.84l-2.69,1.56c.36-.21.59-.66.59-1.29,0-1.28-.9-2.84-2.01-3.48l2.69-1.56c1.11.64,2.01,2.2,2.01,3.48,0,.64-.23,1.08-.59,1.29Z"/>
    </clipPath>
    <clipPath id="clippath-4">
      <path class="cls-63" d="m54.3,4.4l-.02,5.61c0,.75-.5,1.51-1.49,2.09-1.99,1.16-5.24,1.15-7.25,0-1.02-.59-1.52-1.35-1.52-2.12l.02-5.61c0,.77.5,1.53,1.52,2.12,2.01,1.16,5.26,1.16,7.25,0,.99-.58,1.49-1.33,1.49-2.09Z"/>
    </clipPath>
    <clipPath id="clippath-5">
      <path class="cls-63" d="m41.63,44.24l-2.07-1.2c.54.31,1.25.32,2.03,0l2.07,1.2c-.78.32-1.49.31-2.03,0Z"/>
    </clipPath>
    <clipPath id="clippath-6">
      <path class="cls-63" d="m36.26,46.18l2.07,1.2c.81.47,1.18,1.59,1,3l-2.07-1.2c.18-1.41-.18-2.53-1-3Z"/>
    </clipPath>
    <clipPath id="clippath-7">
      <path class="cls-63" d="m38.28,47.35l-2.07-1.2c1.17-.87,2.16-2.29,2.68-3.81l2.07,1.2c-.52,1.52-1.51,2.94-2.68,3.81Z"/>
    </clipPath>
  </defs>
  <g id="Capa_1-2" data-name="Capa 1">
    <g>
      <g class="cls-22">
        <polygon class="cls-66" points="60.15 12.77 60.05 46.41 30.53 63.57 30.63 29.92 60.15 12.77"/>
        <polygon class="cls-37" points="30.63 29.92 30.53 63.57 .82 46.42 .91 12.77 30.63 29.92"/>
        <path class="cls-13" d="m60.15,12.77l-29.52,17.16L.91,12.77c16.31-9.48,42.82-9.48,59.24,0Z"/>
      </g>
      <circle class="cls-28" cx="12.39" cy="7.19" r="5.13"/>
      <g class="cls-22">
        <g class="cls-22">
          <g class="cls-58">
            <g class="cls-22">
              <path class="cls-62" d="m1.06,36.27l4.85-2.82c.09-.05.19-.1.29-.14l-4.85,2.82c-.1.04-.2.08-.29.14"/>
              <path class="cls-19" d="m1.36,36.13l4.85-2.82c.08-.03.17-.05.25-.07l-4.85,2.82c-.09.02-.17.04-.25.07"/>
              <path class="cls-15" d="m1.61,36.06l4.85-2.82c.07-.01.14-.02.21-.03l-4.85,2.82c-.07,0-.14.02-.21.03"/>
              <path class="cls-73" d="m1.82,36.03l4.85-2.82c.06,0,.12,0,.19,0l-4.85,2.82c-.06,0-.13,0-.19,0"/>
              <path class="cls-61" d="m2.01,36.02l4.85-2.82c.06,0,.11,0,.17,0l-4.85,2.82c-.06,0-.11,0-.17,0"/>
              <path class="cls-81" d="m2.18,36.03l4.85-2.82c.05,0,.11,0,.16.02l-4.85,2.82c-.05,0-.11-.01-.16-.02"/>
              <path class="cls-69" d="m2.34,36.04l4.85-2.82c.05,0,.11.02.16.03l-4.85,2.82c-.05-.01-.11-.02-.16-.03"/>
              <path class="cls-83" d="m2.5,36.07l4.85-2.82s.1.02.15.03l-4.85,2.82c-.05-.01-.1-.02-.15-.03"/>
              <path class="cls-80" d="m2.65,36.1l4.85-2.82s.1.03.15.04l-4.85,2.82c-.05-.02-.1-.03-.15-.04"/>
              <path class="cls-33" d="m2.8,36.14l4.85-2.82s.1.03.15.05l-4.85,2.82s-.1-.03-.15-.05"/>
              <path class="cls-46" d="m2.95,36.19l4.85-2.82s.1.04.15.06l-4.85,2.82s-.1-.04-.15-.06"/>
              <path class="cls-82" d="m3.1,36.25l4.85-2.82s.1.04.15.06l-4.85,2.82s-.1-.04-.15-.06"/>
              <path class="cls-47" d="m3.24,36.31l4.85-2.82s.1.05.15.07l-4.85,2.82s-.1-.05-.15-.07"/>
              <path class="cls-53" d="m3.39,36.38l4.85-2.82s.1.05.15.08l-4.85,2.82s-.1-.05-.15-.08"/>
              <path class="cls-56" d="m3.54,36.46l4.85-2.82s.08.04.12.06l-4.85,2.82s-.08-.04-.12-.06"/>
            </g>
          </g>
        </g>
        <g class="cls-22">
          <g class="cls-42">
            <g class="cls-22">
              <path class="cls-56" d="m3.65,36.52l4.85-2.82s.02.01.04.02l-4.85,2.82s-.02-.01-.04-.02"/>
              <path class="cls-27" d="m3.69,36.54l4.85-2.82c.05.03.1.06.16.1l-4.85,2.82c-.05-.03-.1-.06-.16-.1"/>
              <path class="cls-72" d="m3.84,36.64l4.85-2.82c.05.03.1.07.16.1l-4.85,2.82c-.05-.04-.1-.07-.16-.1"/>
              <path class="cls-9" d="m4,36.74l4.85-2.82c.05.04.11.07.16.11l-4.85,2.82c-.05-.04-.11-.08-.16-.11"/>
              <path class="cls-11" d="m4.16,36.85l4.85-2.82c.05.04.11.08.16.12l-4.85,2.82c-.05-.04-.11-.08-.16-.12"/>
              <path class="cls-49" d="m4.32,36.98l4.85-2.82c.05.04.11.09.16.13l-4.85,2.82c-.05-.05-.11-.09-.16-.13"/>
              <path class="cls-3" d="m4.48,37.11l4.85-2.82c.05.05.11.09.16.14l-4.85,2.82c-.05-.05-.11-.1-.16-.14"/>
              <path class="cls-38" d="m4.65,37.25l4.85-2.82c.05.05.11.1.16.15l-4.85,2.82c-.05-.05-.11-.1-.16-.15"/>
              <path class="cls-29" d="m4.81,37.4l4.85-2.82c.05.05.1.1.15.15l-4.85,2.82c-.05-.05-.1-.1-.15-.15"/>
              <path class="cls-25" d="m4.96,37.55l4.85-2.82c.05.05.1.1.15.16l-4.85,2.82c-.05-.05-.1-.1-.15-.16"/>
              <path class="cls-28" d="m5.11,37.71l4.85-2.82c.05.05.09.1.14.16l-4.85,2.82c-.05-.05-.09-.11-.14-.16"/>
              <path class="cls-88" d="m5.25,37.86l4.85-2.82c.05.05.09.11.14.16l-4.85,2.82c-.05-.06-.09-.11-.14-.16"/>
              <path class="cls-12" d="m5.39,38.03l4.85-2.82c.05.06.09.11.14.17l-4.85,2.82c-.05-.06-.09-.12-.14-.17"/>
              <path class="cls-45" d="m5.53,38.2l4.85-2.82c.05.07.11.14.16.21l-4.85,2.82c-.05-.07-.11-.14-.16-.21"/>
              <path class="cls-24" d="m5.69,38.41l4.85-2.82c.08.11.16.22.23.33l-4.85,2.82c-.07-.11-.15-.22-.23-.33"/>
              <path class="cls-87" d="m5.92,38.74l4.85-2.82c.09.14.18.28.27.43l-4.85,2.82c-.09-.15-.18-.29-.27-.43"/>
              <path class="cls-24" d="m6.19,39.17l4.85-2.82c.06.11.12.21.18.32l-4.85,2.82c-.06-.11-.12-.21-.18-.32"/>
              <path class="cls-45" d="m6.37,39.49l4.85-2.82c.04.07.08.14.11.22l-4.85,2.82c-.04-.07-.07-.15-.11-.22"/>
              <path class="cls-12" d="m6.48,39.7l4.85-2.82c.03.06.06.13.09.19l-4.85,2.82c-.03-.06-.06-.13-.09-.19"/>
              <path class="cls-88" d="m6.57,39.9l4.85-2.82c.03.06.05.12.08.18l-4.85,2.82c-.03-.06-.05-.12-.08-.18"/>
              <path class="cls-28" d="m6.65,40.07l4.85-2.82c.03.06.05.12.07.17l-4.85,2.82c-.02-.06-.05-.12-.07-.17"/>
              <path class="cls-25" d="m6.73,40.24l4.85-2.82c.02.06.05.12.07.18l-4.85,2.82c-.02-.06-.05-.12-.07-.18"/>
              <path class="cls-29" d="m6.8,40.42l4.85-2.82c.02.06.05.12.07.18l-4.85,2.82c-.02-.06-.04-.12-.07-.18"/>
              <path class="cls-38" d="m6.87,40.6l4.85-2.82c.02.06.04.12.06.19l-4.85,2.82c-.02-.06-.04-.12-.06-.19"/>
              <path class="cls-3" d="m6.93,40.78l4.85-2.82c.02.06.04.13.06.19l-4.85,2.82c-.02-.06-.04-.13-.06-.19"/>
              <path class="cls-49" d="m6.99,40.97l4.85-2.82c.02.06.04.13.06.19l-4.85,2.82c-.02-.06-.04-.13-.06-.19"/>
              <path class="cls-11" d="m7.05,41.16l4.85-2.82c.02.06.03.13.05.19l-4.85,2.82c-.02-.06-.03-.13-.05-.19"/>
              <path class="cls-9" d="m7.1,41.36l4.85-2.82c.02.06.03.13.04.19l-4.85,2.82c-.01-.06-.03-.13-.04-.19"/>
              <path class="cls-72" d="m7.14,41.55l4.85-2.82c.01.06.03.13.04.19l-4.85,2.82c-.01-.06-.02-.13-.04-.19"/>
              <path class="cls-27" d="m7.18,41.74l4.85-2.82c.01.06.02.12.03.18l-4.85,2.82c0-.06-.02-.12-.03-.18"/>
              <path class="cls-56" d="m7.21,41.92l4.85-2.82c0,.06.02.12.03.18l-4.85,2.82c0-.06-.02-.12-.03-.18"/>
              <path class="cls-53" d="m7.24,42.11l4.85-2.82c0,.06.01.12.02.18l-4.85,2.82c0-.06-.01-.12-.02-.18"/>
              <path class="cls-47" d="m7.26,42.29l4.85-2.82c0,.06.01.12.01.18l-4.85,2.82c0-.06,0-.12-.01-.18"/>
              <path class="cls-82" d="m7.27,42.46l4.85-2.82c0,.06,0,.12,0,.18l-4.85,2.82c0-.06,0-.12,0-.18"/>
              <path class="cls-46" d="m7.28,42.64l4.85-2.82c0,.06,0,.11,0,.17,0,0,0,0,0,.01l-4.85,2.82s0,0,0-.01c0-.05,0-.11,0-.17"/>
              <path class="cls-33" d="m7.28,42.82l4.85-2.82c0,.06,0,.12,0,.18l-4.85,2.82c0-.06,0-.12,0-.18"/>
              <path class="cls-80" d="m7.28,42.99l4.85-2.82c0,.06,0,.12-.01.17l-4.85,2.82c0-.06,0-.11.01-.17"/>
              <path class="cls-83" d="m7.27,43.17l4.85-2.82c0,.06-.01.12-.02.18l-4.85,2.82c0-.06.01-.12.02-.18"/>
              <path class="cls-69" d="m7.25,43.34l4.85-2.82c0,.06-.02.12-.03.17l-4.85,2.82c0-.06.02-.11.03-.17"/>
              <path class="cls-81" d="m7.22,43.52l4.85-2.82c-.01.06-.02.12-.04.18l-4.85,2.82c.01-.06.03-.12.04-.18"/>
              <path class="cls-61" d="m7.19,43.69l4.85-2.82c-.01.06-.03.13-.05.19l-4.85,2.82c.02-.06.03-.12.05-.19"/>
              <path class="cls-73" d="m7.14,43.88l4.85-2.82c-.02.07-.04.13-.06.19l-4.85,2.82c.02-.06.04-.13.06-.19"/>
              <path class="cls-15" d="m7.08,44.07l4.85-2.82c-.03.07-.06.14-.09.21l-4.85,2.82c.03-.07.06-.14.09-.21"/>
              <path class="cls-19" d="m6.99,44.28l4.85-2.82c-.04.09-.09.17-.14.25l-4.85,2.82c.05-.08.1-.16.14-.25"/>
              <path class="cls-62" d="m6.85,44.53l4.85-2.82c-.17.26-.38.47-.63.62l-4.85,2.82c.25-.14.46-.35.63-.62"/>
            </g>
          </g>
        </g>
        <path class="cls-48" d="m3.65,36.52c2.02,1.16,3.64,3.97,3.63,6.29s-1.64,3.25-3.65,2.08C1.62,43.73,0,40.91,0,38.6s1.65-3.24,3.65-2.08Z"/>
      </g>
      <circle class="cls-44" cx="16.13" cy="46.41" r="4.13"/>
      <g class="cls-22">
        <g class="cls-22">
          <g class="cls-20">
            <g class="cls-22">
              <path class="cls-16" d="m12.45,32.49l2.69-1.56c.05-.03.11-.06.16-.08l-2.69,1.56c-.06.02-.11.05-.16.08"/>
              <path class="cls-7" d="m12.61,32.41l2.69-1.56s.09-.03.14-.04l-2.69,1.56s-.1.02-.14.04"/>
              <path class="cls-84" d="m12.75,32.37l2.69-1.56s.08-.01.12-.02l-2.69,1.56s-.08,0-.12.02"/>
              <path class="cls-75" d="m12.87,32.35l2.69-1.56s.07,0,.1,0l-2.69,1.56s-.07,0-.1,0"/>
              <path class="cls-23" d="m12.98,32.35l2.69-1.56s.06,0,.09,0l-2.69,1.56s-.06,0-.09,0"/>
              <path class="cls-30" d="m13.07,32.35l2.69-1.56s.06,0,.09,0l-2.69,1.56s-.06,0-.09,0"/>
              <path class="cls-74" d="m13.16,32.36l2.69-1.56s.06,0,.09.01l-2.69,1.56s-.06-.01-.09-.01"/>
              <path class="cls-21" d="m13.25,32.38l2.69-1.56s.05.01.08.02l-2.69,1.56s-.06-.01-.08-.02"/>
              <path class="cls-8" d="m13.33,32.39l2.69-1.56s.06.01.08.02l-2.69,1.56s-.06-.02-.08-.02"/>
              <path class="cls-60" d="m13.41,32.42l2.69-1.56s.05.02.08.03l-2.69,1.56s-.05-.02-.08-.03"/>
              <path class="cls-6" d="m13.5,32.44l2.69-1.56s.05.02.08.03l-2.69,1.56s-.05-.02-.08-.03"/>
              <path class="cls-18" d="m13.58,32.48l2.69-1.56s.05.02.08.03l-2.69,1.56s-.05-.02-.08-.03"/>
              <path class="cls-57" d="m13.66,32.51l2.69-1.56s.05.02.08.04l-2.69,1.56s-.05-.03-.08-.04"/>
              <path class="cls-85" d="m13.74,32.55l2.69-1.56s.06.03.08.04l-2.69,1.56s-.06-.03-.08-.04"/>
              <path class="cls-50" d="m13.82,32.59l2.69-1.56s.04.02.06.04l-2.69,1.56s-.04-.02-.06-.04"/>
            </g>
          </g>
        </g>
        <g class="cls-22">
          <g class="cls-64">
            <g class="cls-22">
              <path class="cls-50" d="m13.89,32.63l2.69-1.56s.01,0,.02.01l-2.69,1.56s-.01,0-.02-.01"/>
              <path class="cls-78" d="m13.91,32.64l2.69-1.56s.06.03.09.05l-2.69,1.56s-.06-.04-.09-.05"/>
              <path class="cls-77" d="m13.99,32.69l2.69-1.56s.06.04.09.06l-2.69,1.56s-.06-.04-.09-.06"/>
              <path class="cls-5" d="m14.08,32.75l2.69-1.56s.06.04.09.06l-2.69,1.56s-.06-.04-.09-.06"/>
              <path class="cls-14" d="m14.17,32.81l2.69-1.56s.06.04.09.07l-2.69,1.56s-.06-.05-.09-.07"/>
              <path class="cls-26" d="m14.25,32.88l2.69-1.56s.06.05.09.07l-2.69,1.56s-.06-.05-.09-.07"/>
              <path class="cls-34" d="m14.34,32.95l2.69-1.56s.06.05.09.08l-2.69,1.56s-.06-.05-.09-.08"/>
              <path class="cls-32" d="m14.43,33.03l2.69-1.56s.06.05.09.08l-2.69,1.56s-.06-.06-.09-.08"/>
              <path class="cls-55" d="m14.52,33.11l2.69-1.56s.06.06.08.08l-2.69,1.56s-.06-.06-.08-.08"/>
              <path class="cls-41" d="m14.61,33.2l2.69-1.56s.06.06.08.09l-2.69,1.56s-.05-.06-.08-.09"/>
              <path class="cls-51" d="m14.69,33.28l2.69-1.56s.05.06.08.09l-2.69,1.56s-.05-.06-.08-.09"/>
              <path class="cls-39" d="m14.77,33.37l2.69-1.56s.05.06.08.09l-2.69,1.56s-.05-.06-.08-.09"/>
              <path class="cls-79" d="m14.85,33.46l2.69-1.56s.05.06.08.1l-2.69,1.56s-.05-.06-.08-.1"/>
              <path class="cls-36" d="m14.92,33.56l2.69-1.56s.06.08.09.12l-2.69,1.56s-.06-.08-.09-.12"/>
              <path class="cls-67" d="m15.01,33.67l2.69-1.56c.04.06.09.12.13.18l-2.69,1.56c-.04-.06-.08-.12-.13-.18"/>
              <path class="cls-65" d="m15.14,33.86l2.69-1.56c.05.08.1.16.15.24l-2.69,1.56c-.05-.08-.1-.16-.15-.24"/>
              <path class="cls-67" d="m15.29,34.09l2.69-1.56c.03.06.07.12.1.18l-2.69,1.56c-.03-.06-.07-.12-.1-.18"/>
              <path class="cls-36" d="m15.39,34.27l2.69-1.56s.04.08.06.12l-2.69,1.56s-.04-.08-.06-.12"/>
              <path class="cls-79" d="m15.45,34.39l2.69-1.56s.03.07.05.11l-2.69,1.56s-.03-.07-.05-.11"/>
              <path class="cls-39" d="m15.5,34.5l2.69-1.56s.03.07.04.1l-2.69,1.56s-.03-.07-.04-.1"/>
              <path class="cls-51" d="m15.55,34.6l2.69-1.56s.03.06.04.1l-2.69,1.56s-.03-.06-.04-.1"/>
              <path class="cls-41" d="m15.59,34.69l2.69-1.56s.03.07.04.1l-2.69,1.56s-.03-.07-.04-.1"/>
              <path class="cls-55" d="m15.63,34.79l2.69-1.56s.03.07.04.1l-2.69,1.56s-.02-.07-.04-.1"/>
              <path class="cls-32" d="m15.67,34.89l2.69-1.56s.02.07.04.1l-2.69,1.56s-.02-.07-.04-.1"/>
              <path class="cls-34" d="m15.7,34.99l2.69-1.56s.02.07.03.1l-2.69,1.56s-.02-.07-.03-.1"/>
              <path class="cls-26" d="m15.74,35.1l2.69-1.56s.02.07.03.11l-2.69,1.56s-.02-.07-.03-.11"/>
              <path class="cls-14" d="m15.77,35.2l2.69-1.56s.02.07.03.11l-2.69,1.56s-.02-.07-.03-.11"/>
              <path class="cls-5" d="m15.79,35.31l2.69-1.56s.02.07.02.11l-2.69,1.56s-.02-.07-.02-.11"/>
              <path class="cls-77" d="m15.82,35.41l2.69-1.56s.01.07.02.11l-2.69,1.56s-.01-.07-.02-.11"/>
              <path class="cls-78" d="m15.84,35.52l2.69-1.56s.01.07.02.1l-2.69,1.56s-.01-.07-.02-.1"/>
              <path class="cls-50" d="m15.86,35.62l2.69-1.56s.01.07.01.1l-2.69,1.56s0-.07-.01-.1"/>
              <path class="cls-85" d="m15.87,35.72l2.69-1.56s0,.07.01.1l-2.69,1.56s0-.07-.01-.1"/>
              <path class="cls-57" d="m15.88,35.82l2.69-1.56s0,.07,0,.1l-2.69,1.56s0-.07,0-.1"/>
              <path class="cls-18" d="m15.89,35.92l2.69-1.56s0,.07,0,.1l-2.69,1.56s0-.07,0-.1"/>
              <path class="cls-6" d="m15.9,36.02l2.69-1.56s0,.06,0,.09c0,0,0,0,0,0l-2.69,1.56s0,0,0,0c0-.03,0-.06,0-.09"/>
              <path class="cls-60" d="m15.9,36.12l2.69-1.56s0,.07,0,.1l-2.69,1.56s0-.06,0-.1"/>
              <path class="cls-8" d="m15.89,36.21l2.69-1.56s0,.06,0,.1l-2.69,1.56s0-.06,0-.1"/>
              <path class="cls-21" d="m15.89,36.31l2.69-1.56s0,.07-.01.1l-2.69,1.56s0-.06.01-.1"/>
              <path class="cls-74" d="m15.88,36.41l2.69-1.56s0,.06-.01.1l-2.69,1.56s.01-.06.01-.1"/>
              <path class="cls-30" d="m15.86,36.5l2.69-1.56s-.01.07-.02.1l-2.69,1.56s.01-.07.02-.1"/>
              <path class="cls-23" d="m15.84,36.6l2.69-1.56s-.02.07-.03.1l-2.69,1.56s.02-.07.03-.1"/>
              <path class="cls-75" d="m15.82,36.7l2.69-1.56s-.02.07-.04.11l-2.69,1.56s.02-.07.04-.11"/>
              <path class="cls-84" d="m15.78,36.81l2.69-1.56s-.03.08-.05.11l-2.69,1.56s.03-.07.05-.11"/>
              <path class="cls-7" d="m15.73,36.92l2.69-1.56s-.05.09-.08.14l-2.69,1.56s.05-.09.08-.14"/>
              <path class="cls-16" d="m15.66,37.06l2.69-1.56c-.09.15-.21.26-.35.34l-2.69,1.56c.14-.08.26-.19.35-.34"/>
            </g>
          </g>
        </g>
        <path class="cls-35" d="m13.89,32.63c1.11.64,2.01,2.2,2.01,3.48s-.91,1.8-2.02,1.15c-1.11-.64-2.01-2.2-2.01-3.48s.91-1.8,2.02-1.15Z"/>
      </g>
      <circle class="cls-51" cx="30.48" cy="5.13" r="5.13"/>
      <g class="cls-22">
        <g class="cls-22">
          <g class="cls-43">
            <g class="cls-22">
              <path class="cls-2" d="m54.3,4.4l-.02,5.61s0,.03,0,.05l.02-5.61s0-.03,0-.05"/>
              <path class="cls-59" d="m54.3,4.45l-.02,5.61c0,.1-.01.2-.03.29l.02-5.61c.02-.1.03-.2.03-.29"/>
              <path class="cls-71" d="m54.27,4.74l-.02,5.61c-.02.1-.05.19-.08.29l.02-5.61c.04-.1.06-.19.08-.29"/>
              <path class="cls-54" d="m54.18,5.03l-.02,5.61c-.04.1-.08.2-.14.29l.02-5.61c.05-.1.1-.19.14-.29"/>
              <path class="cls-70" d="m54.05,5.32l-.02,5.61c-.06.1-.13.21-.21.31l.02-5.61c.08-.1.15-.2.21-.31"/>
              <path class="cls-4" d="m53.84,5.63l-.02,5.61c-.09.12-.2.23-.32.34l.02-5.61c.12-.11.23-.23.32-.34"/>
              <path class="cls-86" d="m53.52,5.97l-.02,5.61c-.18.17-.4.33-.65.48l.02-5.61c.25-.15.47-.31.65-.48"/>
              <path class="cls-52" d="m52.87,6.45l-.02,5.61s-.04.02-.06.04c-.34.2-.72.36-1.12.49l.02-5.61c.4-.13.78-.29,1.12-.49.02-.01.04-.02.06-.04"/>
              <path class="cls-86" d="m51.69,6.98l-.02,5.61c-.31.1-.63.18-.97.24l.02-5.61c.33-.06.66-.14.97-.24"/>
              <path class="cls-4" d="m50.73,7.22l-.02,5.61c-.21.04-.43.07-.65.09l.02-5.61c.22-.02.44-.05.65-.09"/>
              <path class="cls-70" d="m50.07,7.31l-.02,5.61c-.19.02-.38.03-.57.04l.02-5.61c.19,0,.38-.02.57-.04"/>
              <path class="cls-54" d="m49.5,7.35l-.02,5.61c-.17,0-.35,0-.53,0l.02-5.61c.18,0,.35,0,.53,0"/>
              <path class="cls-71" d="m48.98,7.35l-.02,5.61c-.17,0-.34-.01-.51-.03l.02-5.61c.17.01.34.02.51.03"/>
              <path class="cls-59" d="m48.47,7.33l-.02,5.61c-.17-.01-.33-.03-.5-.06l.02-5.61c.17.02.33.04.5.06"/>
              <path class="cls-2" d="m47.97,7.27l-.02,5.61c-.17-.02-.34-.05-.51-.09l.02-5.61c.17.03.34.06.51.09"/>
              <path class="cls-1" d="m47.46,7.18l-.02,5.61c-.18-.04-.36-.08-.54-.13l.02-5.61c.18.05.35.09.54.13"/>
              <path class="cls-89" d="m46.93,7.05l-.02,5.61c-.21-.06-.42-.13-.62-.21l.02-5.61c.2.08.41.15.62.21"/>
              <path class="cls-17" d="m46.3,6.84l-.02,5.61c-.26-.1-.51-.22-.74-.36-1.02-.59-1.52-1.35-1.52-2.12l.02-5.61c0,.77.5,1.53,1.52,2.12.23.13.48.25.74.36"/>
            </g>
          </g>
        </g>
        <path class="cls-68" d="m52.79,2.29c2.01,1.16,2.03,3.04.02,4.2-1.99,1.16-5.24,1.15-7.25,0-2.02-1.16-2.03-3.04-.03-4.2,2-1.16,5.24-1.16,7.26,0Z"/>
      </g>
      <path class="cls-44" d="m46.08,28.14l1.08,2.2c.07.15.21.25.37.27l2.43.35c.41.06.57.56.28.85l-1.76,1.71c-.12.11-.17.28-.14.44l.41,2.42c.07.41-.36.72-.72.52l-2.17-1.14c-.15-.08-.32-.08-.46,0l-2.17,1.14c-.37.19-.79-.12-.72-.52l.41-2.42c.03-.16-.03-.33-.14-.44l-1.76-1.71c-.3-.29-.13-.79.28-.85l2.43-.35c.16-.02.3-.13.37-.27l1.08-2.2c.18-.37.71-.37.89,0Z"/>
      <g class="cls-22">
        <g class="cls-22">
          <g class="cls-76">
            <g class="cls-22">
              <path class="cls-30" d="m41.63,44.24l-2.07-1.2s.01,0,.02.01l2.07,1.2s-.01,0-.02-.01"/>
              <path class="cls-74" d="m41.65,44.25l-2.07-1.2c.06.03.12.06.18.09l2.07,1.2c-.06-.03-.12-.05-.18-.09"/>
              <path class="cls-21" d="m41.83,44.34l-2.07-1.2c.06.03.12.05.19.07l2.07,1.2c-.06-.02-.13-.04-.19-.07"/>
              <path class="cls-8" d="m42.02,44.41l-2.07-1.2c.06.02.13.03.2.05l2.07,1.2c-.07-.01-.13-.03-.2-.05"/>
              <path class="cls-60" d="m42.22,44.45l-2.07-1.2c.07.01.14.02.22.03l2.07,1.2c-.07,0-.15-.01-.22-.03"/>
              <path class="cls-6" d="m42.43,44.48l-2.07-1.2c.08,0,.16,0,.24,0l2.07,1.2c-.08,0-.16,0-.24,0"/>
              <path class="cls-18" d="m42.67,44.48l-2.07-1.2c.09,0,.18-.01.27-.03l2.07,1.2c-.09.01-.18.02-.27.03"/>
              <path class="cls-57" d="m42.94,44.45l-2.07-1.2c.1-.02.21-.04.32-.07l2.07,1.2c-.11.03-.21.05-.32.07"/>
              <path class="cls-85" d="m43.26,44.38l-2.07-1.2c.13-.04.27-.08.41-.14l2.07,1.2c-.14.06-.27.1-.41.14"/>
            </g>
          </g>
        </g>
        <g class="cls-22">
          <g class="cls-31">
            <g class="cls-22">
              <polyline class="cls-7" points="39.32 50.38 37.25 49.18 37.25 49.18 39.32 50.38 39.32 50.38"/>
              <path class="cls-16" d="m39.32,50.38l-2.07-1.2c.18-1.41-.19-2.53-1-3l2.07,1.2c.81.47,1.18,1.59,1,3"/>
            </g>
          </g>
        </g>
        <g class="cls-22">
          <g class="cls-40">
            <g class="cls-22">
              <path class="cls-50" d="m38.28,47.35l-2.07-1.2c.24-.18.46-.37.68-.59l2.07,1.2c-.22.22-.45.41-.68.59"/>
              <path class="cls-85" d="m38.96,46.76l-2.07-1.2c.13-.13.26-.27.38-.41l2.07,1.2c-.12.14-.25.28-.38.41"/>
              <path class="cls-57" d="m39.35,46.35l-2.07-1.2c.1-.11.19-.23.29-.35l2.07,1.2c-.09.12-.19.24-.29.35"/>
              <path class="cls-18" d="m39.63,46.01l-2.07-1.2c.08-.1.16-.21.24-.32l2.07,1.2c-.08.11-.16.22-.24.32"/>
              <path class="cls-6" d="m39.87,45.69l-2.07-1.2c.07-.1.14-.2.2-.3l2.07,1.2c-.07.1-.13.2-.2.3"/>
              <path class="cls-60" d="m40.07,45.38l-2.07-1.2c.06-.1.12-.2.18-.3l2.07,1.2c-.06.1-.12.2-.18.3"/>
              <path class="cls-8" d="m40.26,45.08l-2.07-1.2c.06-.1.11-.2.17-.3l2.07,1.2c-.05.1-.11.2-.17.3"/>
              <path class="cls-21" d="m40.42,44.78l-2.07-1.2c.05-.1.1-.2.15-.3l2.07,1.2c-.05.1-.1.2-.15.3"/>
              <path class="cls-74" d="m40.58,44.48l-2.07-1.2c.05-.1.1-.21.14-.31l2.07,1.2c-.05.1-.09.21-.14.31"/>
              <path class="cls-30" d="m40.72,44.17l-2.07-1.2c.05-.11.09-.21.13-.32l2.07,1.2c-.04.11-.09.22-.13.32"/>
              <path class="cls-23" d="m40.85,43.85l-2.07-1.2c.04-.1.07-.2.11-.3l2.07,1.2c-.03.1-.07.2-.11.3"/>
            </g>
          </g>
        </g>
        <path class="cls-10" d="m40.96,43.55c.52.92,1.53,1.18,2.7.7-.85,1.43-1.23,3-1.02,4.22-.52-.01-1.09.16-1.66.49s-1.14.81-1.66,1.43c.19-1.44-.2-2.57-1.04-3.03,1.17-.87,2.16-2.29,2.68-3.81Z"/>
      </g>
      <path class="cls-28" d="m53.95,36.6l.94,1.91c.1.2.29.34.51.37l2.11.31c.56.08.78.77.38,1.16l-1.52,1.49c-.16.16-.23.38-.2.6l.36,2.1c.1.56-.49.98-.99.72l-1.88-.99c-.2-.1-.43-.1-.63,0l-1.88.99c-.5.26-1.08-.16-.99-.72l.36-2.1c.04-.22-.04-.45-.2-.6l-1.52-1.49c-.4-.39-.18-1.08.38-1.16l2.11-.31c.22-.03.41-.17.51-.37l.94-1.91c.25-.51.97-.51,1.22,0Z"/>
    </g>
  </g>
</svg>