<?xml version="1.0" encoding="UTF-8"?>
<svg id="Capa_2" data-name="Capa 2" xmlns="http://www.w3.org/2000/svg" viewBox="0 0 39.96 79.67">
  <defs>
    <style>
      .cls-1, .cls-2 {
        fill: #fff;
      }

      .cls-2, .cls-3 {
        fill-rule: evenodd;
      }

      .cls-4 {
        fill: #a6aced;
      }

      .cls-3 {
        fill: #e3e3e0;
      }

      .cls-5 {
        fill: #268c5c;
      }

      .cls-6 {
        fill: #5a724f;
      }
    </style>
  </defs>
  <g id="Capa_1-2" data-name="Capa 1">
    <g>
      <g>
        <rect class="cls-6" x="0" y="15.26" width=".89" height="5.32" rx=".13" ry=".13"/>
        <rect class="cls-6" x="0" y="21.99" width=".89" height="5.32" rx=".13" ry=".13"/>
        <rect class="cls-6" x="0" y="9.89" width=".89" height="2.66" rx=".13" ry=".13"/>
        <rect class="cls-6" x="39.07" y="15.26" width=".89" height="5.32" rx=".13" ry=".13"/>
        <rect class="cls-5" x=".78" y="0" width="38.61" height="79.67" rx="5.34" ry="5.34"/>
        <path class="cls-3" d="m13.24,5.68c.4,0,.72-.32.72-.72s-.32-.72-.72-.72-.72.32-.72.72.32.72.72.72Z"/>
        <path class="cls-3" d="m16.74,4.45h6.71c.26,0,.47.21.47.47h0c0,.26-.21.47-.47.47h-6.71c-.26,0-.47-.21-.47-.47h0c0-.26.21-.47.47-.47Z"/>
        <rect class="cls-1" x="2.79" y="9.15" width="34.7" height="61.26"/>
        <path class="cls-2" d="m20.09,77c1.36,0,2.47-1.11,2.47-2.47s-1.11-2.47-2.47-2.47-2.47,1.11-2.47,2.47c0,1.36,1.11,2.47,2.47,2.47Z"/>
      </g>
      <g>
        <path class="cls-4" d="m31.36,40.19c-.06,1.27.13,2.9-.08,4.51-.49,3.79-3.43,6.43-7.25,6.49-2.66.04-5.33.04-7.99,0-3.94-.06-6.93-2.75-7.27-6.81-.25-3-.25-6.05,0-9.05.32-3.88,2.94-6.48,6.83-6.74,3.05-.21,6.13-.23,9.18.03,3.79.33,6.52,3.4,6.58,7.21.02,1.33,0,2.66,0,4.34Zm-1.78-.02c0-1.6,0-2.88,0-4.17,0-3.29-2.39-5.68-5.66-5.69-2.6,0-5.19,0-7.79,0-3.24,0-5.65,2.4-5.66,5.63,0,2.62,0,5.24,0,7.85,0,3.2,2.41,5.61,5.6,5.62,2.64,0,5.28,0,7.92,0,2.78,0,5-1.82,5.48-4.57.29-1.64.03-3.32.1-4.67Z"/>
        <path class="cls-4" d="m14.19,39.86c.01-3.19,2.62-5.79,5.81-5.82,3.17-.02,5.88,2.67,5.86,5.85-.02,3.17-2.65,5.8-5.82,5.83-3.16.03-5.86-2.68-5.85-5.86Zm5.82,3.73c2.11,0,3.72-1.58,3.73-3.67.01-2.14-1.58-3.76-3.7-3.77-2.14,0-3.74,1.6-3.73,3.74,0,2.1,1.61,3.69,3.71,3.7Z"/>
        <path class="cls-4" d="m26.04,35.35c-.64.02-1.24-.56-1.25-1.21,0-.62.53-1.19,1.16-1.23.64-.04,1.25.52,1.28,1.17.03.63-.55,1.25-1.19,1.27Z"/>
      </g>
    </g>
  </g>
</svg>