<?xml version="1.0" encoding="UTF-8"?>
<svg id="Capa_2" data-name="Capa 2" xmlns="http://www.w3.org/2000/svg" viewBox="0 0 45 45">
  <defs>
    <style>
      .cls-1 {
        fill: #fff;
      }
    </style>
  </defs>
  <g id="Capa_1-2" data-name="Capa 1">
    <path class="cls-1" d="m22.5,0h0C10.07,0,0,10.07,0,22.5h0c0,12.43,10.07,22.5,22.5,22.5h0c12.43,0,22.5-10.07,22.5-22.5h0C45,10.07,34.93,0,22.5,0Zm-5.88,34.21h-4.86v-15.64h4.86v15.64Zm-2.43-17.78c-1.56,0-2.82-1.26-2.82-2.82s1.26-2.82,2.82-2.82,2.82,1.26,2.82,2.82-1.26,2.82-2.82,2.82Zm20.64,17.78h-4.86v-7.61c0-1.81-.03-4.15-2.53-4.15s-2.92,1.98-2.92,4.02v7.74h-4.86v-15.64h4.66v2.14h.07c.65-1.23,2.23-2.53,4.6-2.53,4.92,0,5.83,3.24,5.83,7.45v8.58Z"/>
  </g>
</svg>