<?xml version="1.0" encoding="UTF-8"?>
<svg id="Capa_2" data-name="Capa 2" xmlns="http://www.w3.org/2000/svg" viewBox="0 0 54 54">
  <defs>
    <style>
      .cls-1 {
        fill: #fff;
      }

      .cls-2 {
        fill: #268c5c;
      }
    </style>
  </defs>
  <g id="Capa_1-2" data-name="Capa 1">
    <g>
      <path class="cls-2" d="m27,0h0C41.9,0,54,12.1,54,27h0c0,14.9-12.1,27-27,27h0C12.1,54,0,41.9,0,27H0C0,12.1,12.1,0,27,0Z"/>
      <g>
        <path class="cls-1" d="m14.11,22.28h5.83v18.77h-5.83v-18.77Zm2.92-9.33c1.86,0,3.38,1.52,3.38,3.39s-1.52,3.38-3.38,3.38-3.38-1.51-3.38-3.38,1.51-3.39,3.38-3.39"/>
        <path class="cls-1" d="m23.61,22.28h5.6v2.57h.08c.78-1.48,2.68-3.03,5.52-3.03,5.91,0,7,3.89,7,8.94v10.3h-5.83v-9.13c0-2.18-.04-4.98-3.03-4.98s-3.5,2.37-3.5,4.82v9.28h-5.83v-18.77Z"/>
      </g>
    </g>
  </g>
</svg>